<svg width="32" height="32" viewBox="0 0 32 32" fill="none" xmlns="http://www.w3.org/2000/svg">
<path d="M16 32C24.8366 32 32 24.8366 32 16C32 7.16344 24.8366 0 16 0C7.16344 0 0 7.16344 0 16C0 24.8366 7.16344 32 16 32Z" fill="#2EBAC6"/>
<path d="M21.4505 20.9305L17.438 10.7815C17.21 10.2565 16.8755 10 16.4323 10H16.0775C15.6335 10 15.2983 10.2572 15.0718 10.7815L13.3265 15.2035H12.0057C11.6097 15.205 11.2887 15.5395 11.2857 15.9535V15.964C11.2887 16.3787 11.6097 16.7133 12.0057 16.7148H12.7152L11.0495 20.9305C11.0179 21.0233 11.0012 21.1205 11 21.2185C11 21.4548 11.069 21.64 11.1972 21.784C11.3247 21.928 11.5025 22 11.7297 22C11.8796 21.9976 12.0247 21.9471 12.1437 21.856C12.2712 21.7638 12.3605 21.6295 12.4287 21.4757L14.2633 16.7148H15.5353C15.9305 16.7133 16.2515 16.378 16.2553 15.964V15.9438C16.2515 15.529 15.9305 15.1937 15.5353 15.193H14.855L16.2545 11.5428L20.0698 21.475C20.1388 21.6287 20.2273 21.763 20.3555 21.8552C20.4763 21.9467 20.621 21.9978 20.7703 21.9993C20.9968 21.9993 21.1745 21.9272 21.3028 21.7833C21.4303 21.6393 21.4993 21.454 21.4993 21.2178C21.5032 21.1194 21.4866 21.0221 21.4505 20.9305Z" fill="white"/>
</svg>
