<svg width="28" height="19" viewBox="0 0 28 19" fill="none" xmlns="http://www.w3.org/2000/svg">
<path d="M14.2248 8.68791C16.2717 8.68819 17.9407 7.04702 17.9748 5.0004V3.6004C17.9749 2.7695 17.6415 1.97333 17.0492 1.3905C16.457 0.807682 15.6556 0.487002 14.8248 0.500404H13.6373C11.9301 0.507288 10.5498 1.89319 10.5498 3.6004V5.0004C10.583 7.01818 12.2072 8.64782 14.2248 8.68791Z" fill="black"/>
<path d="M27.4748 15.1379L27.3248 13.2504C27.1627 12.3025 26.3488 11.6042 25.3873 11.5879H19.9873C19.9045 11.575 19.8201 11.575 19.7373 11.5879C19.2582 11.0498 18.5703 10.7445 17.8498 10.7504H10.6123C9.84936 10.7471 9.12665 11.0923 8.64981 11.6879C8.44557 11.6132 8.22977 11.5751 8.01231 11.5754H2.6123C1.64679 11.5928 0.83157 12.2975 0.674804 13.2504L0.524804 15.2004C0.399188 15.7984 0.543531 16.4214 0.919342 16.9032C1.29515 17.385 1.86422 17.6766 2.4748 17.7004H8.16231C8.27444 17.7133 8.38768 17.7133 8.49981 17.7004C8.99559 18.2476 9.69891 18.5607 10.4373 18.5629H18.0248C18.7407 18.5595 19.4236 18.261 19.9123 17.7379H25.5248C26.1576 17.7204 26.7477 17.4151 27.1275 16.9087C27.5073 16.4023 27.6352 15.7502 27.4748 15.1379Z" fill="black"/>
<path d="M22.7498 9.6379C24.2686 9.6379 25.4998 8.40669 25.4998 6.8879V5.8254C25.5 5.20111 25.2478 4.60324 24.8005 4.16772C24.3533 3.7322 23.7489 3.49603 23.1248 3.5129H22.2498C20.9726 3.5129 19.9373 4.54825 19.9373 5.8254V6.8879C19.9371 7.62821 20.2354 8.33732 20.7647 8.85488C21.2941 9.37244 22.0097 9.65473 22.7498 9.6379Z" fill="black"/>
<path d="M5.31231 9.63791C6.83109 9.63791 8.06231 8.40669 8.06231 6.8879V5.8254C8.06231 4.54825 7.02697 3.5129 5.74981 3.5129H4.87481C3.59765 3.5129 2.56231 4.54825 2.56231 5.8254V6.8879C2.56231 8.40669 3.79352 9.63791 5.31231 9.63791Z" fill="black"/>
</svg>
