<svg width="21" height="21" viewBox="0 0 21 21" fill="none" xmlns="http://www.w3.org/2000/svg">
<path d="M16.9546 12.5772L16.1184 11.1891C15.9428 10.8797 15.7839 10.2943 15.7839 9.95149V7.83584C15.7839 5.87072 14.6299 4.17319 12.9658 3.37878C12.531 2.60946 11.7282 2.13281 10.8084 2.13281C9.89691 2.13281 9.07742 2.62618 8.64258 3.40387C7.01195 4.215 5.88305 5.89581 5.88305 7.83584V9.95149C5.88305 10.2943 5.72417 10.8797 5.54856 11.1807L4.70398 12.5772C4.36949 13.1375 4.29423 13.7563 4.50328 14.3249C4.70398 14.8852 5.18062 15.32 5.79943 15.5291C7.4217 16.081 9.12759 16.3486 10.8335 16.3486C12.5394 16.3486 14.2453 16.081 15.8675 15.5374C16.4529 15.3451 16.9045 14.9019 17.1219 14.3249C17.3393 13.7479 17.2808 13.1124 16.9546 12.5772Z" fill="#B71FFF" fill-opacity="0.4"/>
<path d="M13.1817 17.1959C12.8305 18.1659 11.9023 18.8599 10.8152 18.8599C10.1546 18.8599 9.50231 18.5924 9.04239 18.1157C8.7748 17.8648 8.5741 17.5304 8.45703 17.1875C8.56574 17.2042 8.67445 17.2126 8.79152 17.2293C8.98385 17.2544 9.18454 17.2795 9.38524 17.2962C9.86188 17.338 10.3469 17.3631 10.8319 17.3631C11.3085 17.3631 11.7852 17.338 12.2535 17.2962C12.4291 17.2795 12.6047 17.2711 12.7719 17.246C12.9057 17.2293 13.0395 17.2126 13.1817 17.1959Z" fill="#B71FFF" fill-opacity="0.4"/>
</svg>
