<svg width="20" height="21" viewBox="0 0 20 21" fill="none" xmlns="http://www.w3.org/2000/svg">
<path d="M9.82569 2.52734C5.30305 2.52734 1.63672 6.19367 1.63672 10.7163C1.63672 15.2389 5.30305 18.9053 9.82569 18.9053C14.3483 18.9053 18.0147 15.2389 18.0147 10.7163C18.0147 6.19367 14.3483 2.52734 9.82569 2.52734Z" stroke="#F1F1F1" stroke-width="1.22835" stroke-linecap="round" stroke-linejoin="round"/>
<path d="M9.82603 4.98438C6.66018 4.98438 4.09375 7.5508 4.09375 10.7167C4.09375 13.8825 6.66018 16.4489 9.82603 16.4489C12.9919 16.4489 15.5583 13.8825 15.5583 10.7167C15.5583 7.55081 12.9919 4.98438 9.82603 4.98438Z" stroke="#F1F1F1" stroke-width="1.22835" stroke-linecap="round" stroke-linejoin="round"/>
<path d="M9.82617 2.52734V4.98404" stroke="#F1F1F1" stroke-width="1.22835" stroke-linecap="round"/>
<path d="M9.82617 16.4473V18.904" stroke="#F1F1F1" stroke-width="1.22835" stroke-linecap="round"/>
<path d="M2.73438 6.62109L4.86194 7.84944" stroke="#F1F1F1" stroke-width="1.22835" stroke-linecap="round"/>
<path d="M14.791 13.582L16.9186 14.8104" stroke="#F1F1F1" stroke-width="1.22835" stroke-linecap="round"/>
<path d="M16.9186 6.62109L14.791 7.84944" stroke="#F1F1F1" stroke-width="1.22835" stroke-linecap="round"/>
<path d="M4.86194 13.582L2.73438 14.8104" stroke="#F1F1F1" stroke-width="1.22835" stroke-linecap="round"/>
<path d="M8.54701 12.8988V8.53131M9.82654 8.53131V7.43945M9.82654 13.9906V12.8988M8.54701 10.715H11.1061M11.1061 10.715C11.5301 10.715 11.8738 11.0817 11.8738 11.5339V12.0799C11.8738 12.5322 11.5301 12.8988 11.1061 12.8988H7.7793M11.1061 10.715C11.5301 10.715 11.8738 10.3484 11.8738 9.89615V9.35019C11.8738 8.89795 11.5301 8.53131 11.1061 8.53131H7.7793" stroke="#F1F1F1" stroke-width="1.22835" stroke-linecap="round" stroke-linejoin="round"/>
</svg>
