<svg width="32" height="32" viewBox="0 0 32 32" fill="none" xmlns="http://www.w3.org/2000/svg">
<g clip-path="url(#clip0_1196_8996)">
<path d="M16 32C24.8366 32 32 24.8366 32 16C32 7.16344 24.8366 0 16 0C7.16344 0 0 7.16344 0 16C0 24.8366 7.16344 32 16 32Z" fill="#F7AE02"/>
<path fill-rule="evenodd" clip-rule="evenodd" d="M13.0875 14.8008L16 11.8883L18.9125 14.8008L20.6125 13.1008L16 8.48828L11.3875 13.1008L13.0875 14.8008ZM8.5 16.0008L10.2 14.3008L11.9 16.0008L10.2 17.7008L8.5 16.0008ZM16 20.1133L13.0875 17.2008L11.3875 18.8883L16 23.5008L20.6125 18.8883L18.9125 17.1883L16 20.1008V20.1133ZM20.1125 16.0008L21.8125 14.3008L23.5125 16.0008L21.8125 17.7008L20.1125 16.0008ZM16 14.2758L17.725 16.0008L16 17.7258L14.275 16.0133L14.575 15.7008L14.725 15.5508L16 14.2758Z" fill="white"/>
</g>
<defs>
<clipPath id="clip0_1196_8996">
<rect width="32" height="32" fill="white"/>
</clipPath>
</defs>
</svg>
