<svg width="355" height="284" viewBox="0 0 355 284" fill="none" xmlns="http://www.w3.org/2000/svg">
<path d="M244.95 63.9004V72.4204" stroke="#A604FC" stroke-width="2.5" stroke-linecap="round" stroke-linejoin="round"/>
<path d="M244.95 83.7812V92.3013" stroke="#A604FC" stroke-width="2.5" stroke-linecap="round" stroke-linejoin="round"/>
<path d="M230.75 78.1005H239.27" stroke="#A604FC" stroke-width="2.5" stroke-linecap="round" stroke-linejoin="round"/>
<path d="M250.631 78.1005H259.151" stroke="#A604FC" stroke-width="2.5" stroke-linecap="round" stroke-linejoin="round"/>
<path d="M127.091 210.16V215.84" stroke="#A604FC" stroke-width="2.5" stroke-linecap="round" stroke-linejoin="round"/>
<path d="M127.091 227.199V232.879" stroke="#A604FC" stroke-width="2.5" stroke-linecap="round" stroke-linejoin="round"/>
<path d="M115.73 221.52H121.41" stroke="#A604FC" stroke-width="2.5" stroke-linecap="round" stroke-linejoin="round"/>
<path d="M132.77 221.52H138.45" stroke="#A604FC" stroke-width="2.5" stroke-linecap="round" stroke-linejoin="round"/>
<path fill-rule="evenodd" clip-rule="evenodd" d="M228.21 186.199C230.185 183.78 231.96 181.251 233.535 178.634C236.999 172.876 239.496 166.691 241.022 160.314C242.566 153.864 243.116 147.219 242.67 140.622C242.28 134.865 241.131 129.145 239.22 123.624C237.325 118.147 234.68 112.867 231.283 107.941C229.258 105.006 226.967 102.196 224.408 99.5466C220.65 95.6564 216.529 92.3306 212.15 89.5713C207.446 86.6064 202.443 84.2956 197.275 82.6412C190.803 80.5694 184.071 79.5271 177.338 79.5196C172.099 79.5137 166.859 80.1341 161.741 81.3833C155.979 82.7895 150.371 84.9926 145.09 87.9959C140.449 90.6359 136.06 93.8942 132.043 97.7731C126.994 102.648 122.905 108.143 119.778 114.023C116.717 119.781 114.579 125.908 113.368 132.185C112.119 138.653 111.854 145.279 112.576 151.823C113.511 160.305 116.105 168.65 120.365 176.333C123.091 181.249 126.499 185.895 130.592 190.132C137.089 196.859 144.674 201.899 152.798 205.24C162.678 209.303 173.354 210.854 183.84 209.875C192.64 209.054 201.305 206.449 209.252 202.052" fill="white"/>
<path d="M228.21 186.199C230.185 183.78 231.96 181.251 233.535 178.634C236.999 172.876 239.496 166.691 241.022 160.314C242.566 153.864 243.116 147.219 242.67 140.622C242.28 134.865 241.131 129.145 239.22 123.624C237.325 118.147 234.68 112.867 231.283 107.941C229.258 105.006 226.967 102.196 224.408 99.5466C220.65 95.6564 216.529 92.3306 212.15 89.5713C207.446 86.6064 202.443 84.2956 197.275 82.6412C190.803 80.5694 184.071 79.5271 177.338 79.5196C172.099 79.5137 166.859 80.1341 161.741 81.3833C155.979 82.7895 150.371 84.9926 145.09 87.9959C140.449 90.6359 136.06 93.8942 132.043 97.7731C126.994 102.648 122.905 108.143 119.778 114.023C116.717 119.781 114.579 125.908 113.368 132.185C112.119 138.653 111.854 145.279 112.576 151.823C113.511 160.305 116.105 168.65 120.365 176.333C123.091 181.249 126.499 185.895 130.592 190.132C137.089 196.86 144.674 201.899 152.798 205.24C162.678 209.303 173.354 210.854 183.84 209.875C192.64 209.054 201.305 206.449 209.252 202.052" stroke="#7910B1" stroke-width="4" stroke-linecap="round" stroke-linejoin="round"/>
<path fill-rule="evenodd" clip-rule="evenodd" d="M213.996 199.337C218.123 196.681 221.792 193.368 224.179 190.694L213.996 199.337Z" fill="white"/>
<path d="M213.996 199.337C218.123 196.681 221.792 193.368 224.179 190.694" stroke="#7910B1" stroke-width="2.5" stroke-linecap="round"/>
<path d="M237.139 148.555C236.733 148.563 236.326 148.566 235.918 148.566C200.058 148.566 170.696 120.609 168.235 85.1992C139.692 89.7015 117.859 114.526 117.859 144.475C117.859 177.614 144.592 204.479 177.567 204.479C209.178 204.479 235.052 179.792 237.139 148.555Z" fill="#FAEBFF"/>
<path fill-rule="evenodd" clip-rule="evenodd" d="M154.813 142.53C153.076 140.926 150.381 141.05 148.794 142.806C147.208 144.562 147.329 147.285 149.067 148.889L169.116 167.403C171.547 169.649 175.32 169.477 177.541 167.018C177.634 166.914 177.634 166.914 177.724 166.806L206.335 132.021C207.839 130.192 207.592 127.477 205.783 125.956C203.974 124.436 201.288 124.685 199.784 126.514L172.885 159.218L154.813 142.53Z" fill="white" stroke="#7910B1" stroke-width="2" stroke-linecap="round"/>
<path fill-rule="evenodd" clip-rule="evenodd" d="M157.371 91.4658C154.601 92.5047 151.896 93.7672 149.283 95.2536C145.222 97.5635 141.383 100.414 137.868 103.808C136.428 105.199 135.076 106.648 133.815 108.148M129.91 113.369C128.906 114.885 127.983 116.44 127.139 118.026C126.516 119.198 125.937 120.387 125.402 121.592" fill="white"/>
<path d="M157.81 92.6362C158.456 92.3937 158.784 91.6731 158.541 91.0268C158.299 90.3804 157.578 90.053 156.932 90.2955L157.81 92.6362ZM149.283 95.2536L149.901 96.3402L149.283 95.2536ZM137.868 103.808L137 102.909L137.868 103.808ZM132.858 107.343C132.414 107.871 132.481 108.66 133.01 109.104C133.538 109.549 134.326 109.481 134.771 108.953L132.858 107.343ZM130.952 114.059C131.333 113.483 131.175 112.707 130.599 112.327C130.024 111.946 129.248 112.103 128.867 112.679L130.952 114.059ZM127.139 118.026L128.243 118.613L127.139 118.026ZM124.26 121.084C123.979 121.715 124.263 122.453 124.894 122.734C125.525 123.014 126.263 122.73 126.544 122.1L124.26 121.084ZM156.932 90.2955C154.101 91.3573 151.336 92.6477 148.665 94.1671L149.901 96.3402C152.457 94.8866 155.102 93.6521 157.81 92.6362L156.932 90.2955ZM148.665 94.1671C144.514 96.5283 140.59 99.4419 137 102.909L138.737 104.707C142.175 101.387 145.93 98.5987 149.901 96.3402L148.665 94.1671ZM137 102.909C135.528 104.33 134.148 105.811 132.858 107.343L134.771 108.953C136.005 107.486 137.327 106.069 138.737 104.707L137 102.909ZM128.867 112.679C127.842 114.229 126.898 115.818 126.036 117.44L128.243 118.613C129.068 117.062 129.971 115.542 130.952 114.059L128.867 112.679ZM126.036 117.44C125.399 118.637 124.807 119.853 124.26 121.084L126.544 122.1C127.068 120.922 127.634 119.759 128.243 118.613L126.036 117.44Z" fill="#A604FC"/>
</svg>
