<svg width="27" height="27" viewBox="0 0 27 27" fill="none" xmlns="http://www.w3.org/2000/svg">
<path d="M23.745 11.1699H14.5967V17.1452C14.5967 17.5923 14.2259 17.963 13.7789 17.963C13.3318 17.963 12.9611 17.5923 12.9611 17.1452V11.1699H3.81273C3.28935 11.1699 2.875 11.5843 2.875 12.1077C2.875 18.53 7.35649 23.0115 13.7789 23.0115C20.2013 23.0115 24.6827 18.53 24.6827 12.1077C24.6827 11.5843 24.2684 11.1699 23.745 11.1699Z" fill="#7910B1"/>
<path d="M14.5967 6.69882L16.2977 8.39983C16.6139 8.71604 17.1373 8.71604 17.4535 8.39983C17.7697 8.08361 17.7697 7.56023 17.4535 7.24402L14.3459 4.14732C14.0297 3.8311 13.5063 3.8311 13.1901 4.14732L10.0934 7.25492C9.94075 7.41848 9.85352 7.62565 9.85352 7.83283C9.85352 8.04 9.92984 8.24717 10.0934 8.41073C10.4096 8.72694 10.933 8.72694 11.2492 8.41073L12.9502 6.70973V11.1694H14.5858V6.69882H14.5967Z" fill="#7910B1"/>
</svg>
