<svg width="24" height="24" viewBox="0 0 24 24" fill="none" xmlns="http://www.w3.org/2000/svg">
<path d="M2.58273 19.0093L2.56273 19.0293C2.29273 18.4393 2.12273 17.7693 2.05273 17.0293C2.12273 17.7593 2.31273 18.4193 2.58273 19.0093Z" fill="#7910B1"/>
<path d="M9.00109 10.3791C10.3155 10.3791 11.3811 9.31358 11.3811 7.99914C11.3811 6.6847 10.3155 5.61914 9.00109 5.61914C7.68666 5.61914 6.62109 6.6847 6.62109 7.99914C6.62109 9.31358 7.68666 10.3791 9.00109 10.3791Z" fill="#7910B1"/>
<path d="M16.192 2H7.81195C4.17195 2 2.00195 4.17 2.00195 7.81V16.19C2.00195 17.28 2.19195 18.23 2.56195 19.03C3.42195 20.93 5.26195 22 7.81195 22H16.192C19.832 22 22.002 19.83 22.002 16.19V13.9V7.81C22.002 4.17 19.832 2 16.192 2ZM20.372 12.5C19.592 11.83 18.332 11.83 17.552 12.5L13.392 16.07C12.612 16.74 11.352 16.74 10.572 16.07L10.232 15.79C9.52195 15.17 8.39195 15.11 7.59195 15.65L3.85195 18.16C3.63195 17.6 3.50195 16.95 3.50195 16.19V7.81C3.50195 4.99 4.99195 3.5 7.81195 3.5H16.192C19.012 3.5 20.502 4.99 20.502 7.81V12.61L20.372 12.5Z" fill="#7910B1"/>
</svg>
