<svg width="52" height="52" viewBox="0 0 52 52" fill="none" xmlns="http://www.w3.org/2000/svg">
<path d="M45.4343 2.16797H39.0644C37.1794 2.16797 35.7927 2.94797 35.1643 4.33464C34.8177 4.96297 34.666 5.69964 34.666 6.5663V12.9363C34.666 15.688 36.3127 17.3346 39.0644 17.3346H45.4343C46.301 17.3346 47.0377 17.183 47.666 16.8363C49.0527 16.208 49.8327 14.8213 49.8327 12.9363V6.5663C49.8327 3.81464 48.186 2.16797 45.4343 2.16797ZM47.471 10.683C47.2543 10.8996 46.9293 11.0513 46.5827 11.073H43.5277V12.178L43.5493 14.0846C43.5277 14.453 43.3977 14.7563 43.1377 15.0163C42.921 15.233 42.596 15.3846 42.2493 15.3846C41.5343 15.3846 40.9493 14.7996 40.9493 14.0846V11.0513L37.916 11.073C37.201 11.073 36.616 10.4663 36.616 9.7513C36.616 9.0363 37.201 8.4513 37.916 8.4513L39.8227 8.47297H40.9493V5.43964C40.9493 4.72464 41.5343 4.11797 42.2493 4.11797C42.9643 4.11797 43.5493 4.72464 43.5493 5.43964L43.5277 6.97797V8.4513H46.5827C47.2977 8.4513 47.8827 9.0363 47.8827 9.7513C47.861 10.1196 47.7093 10.423 47.471 10.683Z" fill="#7910B1"/>
<path d="M19.5004 22.4891C22.3484 22.4891 24.6571 20.1804 24.6571 17.3324C24.6571 14.4845 22.3484 12.1758 19.5004 12.1758C16.6525 12.1758 14.3438 14.4845 14.3438 17.3324C14.3438 20.1804 16.6525 22.4891 19.5004 22.4891Z" fill="#7910B1"/>
<path d="M45.4356 17.332H44.4173V27.3204L44.1357 27.082C42.4457 25.6304 39.7156 25.6304 38.0256 27.082L29.0123 34.817C27.3223 36.2687 24.5923 36.2687 22.9023 34.817L22.1656 34.2104C20.6273 32.867 18.179 32.737 16.4457 33.907L8.34232 39.3454C7.86565 38.132 7.58398 36.7237 7.58398 35.077V16.9204C7.58398 10.8104 10.8123 7.58203 16.9223 7.58203H34.6673V6.5637C34.6673 5.69703 34.819 4.96036 35.1656 4.33203H16.9223C9.03565 4.33203 4.33398 9.0337 4.33398 16.9204V35.077C4.33398 37.4387 4.74565 39.497 5.54732 41.2304C7.41065 45.347 11.3973 47.6654 16.9223 47.6654H35.079C42.9656 47.6654 47.6673 42.9637 47.6673 35.077V16.8337C47.039 17.1804 46.3023 17.332 45.4356 17.332Z" fill="#7910B1"/>
</svg>
