<svg width="20" height="20" viewBox="0 0 20 20" fill="none" xmlns="http://www.w3.org/2000/svg">
<path d="M1.63672 10.0609C1.63672 6.97269 1.63672 5.42857 2.59611 4.46916C3.55552 3.50977 5.09964 3.50977 8.1879 3.50977H11.4635C14.5517 3.50977 16.0959 3.50977 17.0553 4.46916C18.0147 5.42857 18.0147 6.97269 18.0147 10.0609C18.0147 13.1492 18.0147 14.6934 17.0553 15.6527C16.0959 16.6121 14.5517 16.6121 11.4635 16.6121H8.1879C5.09964 16.6121 3.55552 16.6121 2.59611 15.6527C1.63672 14.6934 1.63672 13.1492 1.63672 10.0609Z" stroke="#F1F1F1" stroke-width="1.22835" stroke-linecap="round" stroke-linejoin="round"/>
<path d="M1.63672 10.0605H18.0147" stroke="#F1F1F1" stroke-width="1.22835" stroke-linecap="round" stroke-linejoin="round"/>
<path d="M8.18945 3.50977V16.6121" stroke="#F1F1F1" stroke-width="1.22835" stroke-linecap="round" stroke-linejoin="round"/>
<path d="M5.73242 7.60547L10.6458 12.5189M5.73242 12.5189L10.6458 7.60547" stroke="#F1F1F1" stroke-width="1.22835" stroke-linecap="round" stroke-linejoin="round"/>
</svg>
