<svg width="24" height="25" viewBox="0 0 24 25" fill="none" xmlns="http://www.w3.org/2000/svg">
<path d="M16.5 17.5L17.4989 18.5M17.4989 18.5L18.5 19.5M17.4989 18.5L18.5 17.5M17.4989 18.5L16.5 19.5M21.5 18.5C21.5 20.7091 19.7091 22.5 17.5 22.5C15.2909 22.5 13.5 20.7091 13.5 18.5C13.5 16.2909 15.2909 14.5 17.5 14.5C19.7091 14.5 21.5 16.2909 21.5 18.5Z" stroke="#141B34" stroke-width="1.5" stroke-linecap="round"/>
<path d="M6.95309 17.9869C6.66965 18.2889 6.68474 18.7636 6.98679 19.047C7.28884 19.3305 7.76348 19.3154 8.04691 19.0133L6.95309 17.9869ZM10.5791 17.7459C10.991 17.7022 11.2895 17.3329 11.2458 16.921C11.2021 16.5091 10.8328 16.2106 10.4209 16.2543L10.5791 17.7459ZM8.50279 5.25122C8.91701 5.24968 9.25154 4.91265 9.24999 4.49843C9.24845 4.08421 8.91142 3.74969 8.49721 3.75122L8.50279 5.25122ZM13.5028 3.75122C13.0886 3.74969 12.7515 4.08421 12.75 4.49843C12.7485 4.91265 13.083 5.24968 13.4972 5.25122L13.5028 3.75122ZM18.75 12.5001C18.75 12.9143 19.0858 13.2501 19.5 13.2501C19.9142 13.2501 20.25 12.9143 20.25 12.5001H18.75ZM10.5 23.2501C10.9142 23.2501 11.25 22.9143 11.25 22.5001C11.25 22.0859 10.9142 21.7501 10.5 21.7501V23.2501ZM12.25 12.5001C12.25 13.2017 11.6933 13.7501 11.0315 13.7501V15.2501C12.5441 15.2501 13.75 14.0076 13.75 12.5001H12.25ZM11.0315 13.7501C10.3698 13.7501 9.81307 13.2017 9.81307 12.5001H8.31307C8.31307 14.0076 9.51898 15.2501 11.0315 15.2501V13.7501ZM9.81307 12.5001C9.81307 11.7985 10.3698 11.2501 11.0315 11.2501V9.75006C9.51898 9.75006 8.31307 10.9926 8.31307 12.5001H9.81307ZM11.0315 11.2501C11.6933 11.2501 12.25 11.7985 12.25 12.5001H13.75C13.75 10.9926 12.5441 9.75006 11.0315 9.75006V11.2501ZM8.04691 19.0133C8.72491 18.2908 9.62319 17.8473 10.5791 17.7459L10.4209 16.2543C9.10487 16.3939 7.87535 17.0041 6.95309 17.9869L8.04691 19.0133ZM3.25 15.8685V11.1317H1.75V15.8685H3.25ZM9.5 21.7501C7.82998 21.7501 6.64898 21.7487 5.75431 21.6347C4.87725 21.523 4.38967 21.3148 4.04093 20.9845L3.00932 22.0734C3.68571 22.7142 4.53565 22.9916 5.56479 23.1227C6.57633 23.2515 7.8702 23.2501 9.5 23.2501V21.7501ZM1.75 15.8685C1.75 17.4092 1.74823 18.6444 1.88558 19.6122C2.02661 20.606 2.32721 21.4272 3.00932 22.0734L4.04093 20.9845C3.69792 20.6595 3.48595 20.2136 3.3707 19.4014C3.25177 18.5634 3.25 17.4539 3.25 15.8685H1.75ZM20.25 11.1317C20.25 9.5909 20.2518 8.35576 20.1144 7.38792C19.9734 6.39416 19.6728 5.57297 18.9907 4.92676L17.9591 6.01569C18.3021 6.34064 18.514 6.78657 18.6293 7.59868C18.7482 8.43671 18.75 9.54621 18.75 11.1317H20.25ZM3.25 11.1317C3.25 9.54621 3.25177 8.43671 3.3707 7.59868C3.48595 6.78657 3.69792 6.34064 4.04093 6.01569L3.00932 4.92676C2.32721 5.57297 2.02661 6.39416 1.88558 7.38792C1.74823 8.35576 1.75 9.5909 1.75 11.1317H3.25ZM8.49721 3.75122C7.18295 3.75612 6.10891 3.78044 5.24135 3.9247C4.35533 4.07203 3.61291 4.35494 3.00932 4.92676L4.04093 6.01569C4.35322 5.71984 4.77604 5.52266 5.48739 5.40438C6.2172 5.28302 7.17265 5.25618 8.50279 5.25122L8.49721 3.75122ZM13.4972 5.25122C14.8273 5.25618 15.7828 5.28302 16.5126 5.40438C17.224 5.52266 17.6468 5.71984 17.9591 6.01569L18.9907 4.92676C18.3871 4.35494 17.6447 4.07203 16.7587 3.9247C15.8911 3.78044 14.817 3.75612 13.5028 3.75122L13.4972 5.25122ZM18.75 11.1317V12.5001H20.25V11.1317H18.75ZM10.5 21.7501H9.5V23.2501H10.5V21.7501ZM12.4971 4.30071L12.5804 4.66084L14.0418 4.32281L13.9586 3.96269L12.4971 4.30071ZM11.4981 5.75006H10.5019V7.25006H11.4981V5.75006ZM9.41957 4.66084L9.50286 4.30071L8.04145 3.96269L7.95815 4.32281L9.41957 4.66084ZM10.5019 5.75006C10.071 5.75006 9.7969 5.74939 9.59356 5.73157C9.49716 5.72312 9.43739 5.71227 9.4 5.70247C9.38224 5.69781 9.37137 5.69386 9.3655 5.69146C9.36256 5.69026 9.36069 5.68936 9.35969 5.68886C9.35918 5.6886 9.35855 5.68825 9.35835 5.68814L8.57968 6.9702C8.86483 7.14338 9.17387 7.20053 9.46262 7.22584C9.74679 7.25074 10.0984 7.25006 10.5019 7.25006V5.75006ZM7.95815 4.32281C7.87686 4.67424 7.80134 4.99621 7.76888 5.26487C7.73518 5.54381 7.73287 5.86611 7.87896 6.18814L9.24497 5.56845C9.2627 5.60753 9.23876 5.60444 9.25805 5.4448C9.27858 5.27488 9.33069 5.04509 9.41957 4.66084L7.95815 4.32281ZM9.35835 5.68814C9.29699 5.65087 9.26197 5.60592 9.24497 5.56845L7.87896 6.18814C8.02824 6.51722 8.27656 6.78609 8.57968 6.9702L9.35835 5.68814ZM12.5804 4.66084C12.6693 5.04509 12.7214 5.27488 12.742 5.4448C12.7612 5.60444 12.7373 5.60753 12.755 5.56845L14.121 6.18814C14.2671 5.86611 14.2648 5.54381 14.2311 5.26487C14.1987 4.99621 14.1231 4.67424 14.0418 4.32281L12.5804 4.66084ZM11.4981 7.25006C11.9016 7.25006 12.2532 7.25074 12.5374 7.22584C12.8261 7.20053 13.1352 7.14338 13.4203 6.9702L12.6417 5.68814C12.6415 5.68825 12.6408 5.6886 12.6403 5.68886C12.6393 5.68936 12.6374 5.69026 12.6345 5.69146C12.6286 5.69386 12.6178 5.69781 12.6 5.70247C12.5626 5.71227 12.5028 5.72312 12.4064 5.73157C12.2031 5.74939 11.929 5.75006 11.4981 5.75006V7.25006ZM12.755 5.56845C12.738 5.60592 12.703 5.65087 12.6417 5.68814L13.4203 6.9702C13.7234 6.7861 13.9718 6.51722 14.121 6.18814L12.755 5.56845ZM11 3.25007C11.5097 3.25007 11.6409 3.25477 11.7403 3.27766L12.0768 1.81587C11.7704 1.74537 11.4312 1.75007 11 1.75007V3.25007ZM13.9586 3.96269C13.8729 3.59251 13.8035 3.26271 13.6506 2.98172L12.333 3.69849C12.3644 3.75626 12.3909 3.84126 12.4971 4.30071L13.9586 3.96269ZM11.7403 3.27766C12.0225 3.34259 12.2298 3.50893 12.333 3.69849L13.6506 2.98172C13.3245 2.38212 12.74 1.9685 12.0768 1.81587L11.7403 3.27766ZM11 1.75007C10.5688 1.75007 10.2296 1.74537 9.92323 1.81587L10.2597 3.27766C10.3591 3.25477 10.4903 3.25007 11 3.25007V1.75007ZM9.50286 4.30071C9.60914 3.84126 9.63562 3.75626 9.66705 3.69849L8.34938 2.98172C8.19653 3.26271 8.12707 3.59251 8.04145 3.96269L9.50286 4.30071ZM9.92323 1.81587C9.26005 1.9685 8.67555 2.38212 8.34938 2.98172L9.66705 3.69849C9.77016 3.50893 9.97753 3.34259 10.2597 3.27766L9.92323 1.81587Z" fill="#141B34"/>
<path d="M7.5 18.5C8.41684 17.5229 9.72299 17.0115 11.0315 17.0002M13 12.5C13 13.6046 12.1187 14.5 11.0315 14.5C9.94438 14.5 9.06307 13.6046 9.06307 12.5C9.06307 11.3954 9.94438 10.5 11.0315 10.5C12.1187 10.5 13 11.3954 13 12.5Z" stroke="#141B34" stroke-width="1.5" stroke-linecap="round"/>
<path d="M8.5 4.5C5.85561 4.50986 4.44101 4.60232 3.52513 5.47C2.5 6.44117 2.5 8.00425 2.5 11.1304V15.8673C2.5 18.9935 2.5 20.5565 3.52513 21.5277C4.55025 22.4989 6.20017 22.4988 9.5 22.4988H11.5M13.5 4.5C16.1444 4.50986 17.559 4.60232 18.4749 5.47C19.5 6.44117 19.5 8.00425 19.5 11.1304V11.9989" stroke="#141B34" stroke-width="1.5" stroke-linecap="round" stroke-linejoin="round"/>
<path d="M8.77216 4.13163C8.8681 3.71682 8.91608 3.50942 9.00821 3.34004C9.22285 2.94546 9.61879 2.65548 10.0914 2.5467C10.2943 2.5 10.5296 2.5 11 2.5C11.4704 2.5 11.7057 2.5 11.9086 2.5467C12.3812 2.65548 12.7771 2.94545 12.9918 3.34004C13.0839 3.50942 13.1319 3.71682 13.2278 4.13163L13.3111 4.49176C13.4813 5.22744 13.5664 5.59528 13.438 5.87824C13.3549 6.0615 13.2132 6.21842 13.031 6.32911C12.7496 6.5 12.3324 6.5 11.4981 6.5H10.5019C9.66755 6.5 9.25038 6.5 8.96901 6.32911C8.78677 6.21842 8.6451 6.0615 8.56197 5.87824C8.43361 5.59528 8.51869 5.22744 8.68886 4.49176L8.77216 4.13163Z" stroke="#141B34" stroke-width="1.5"/>
</svg>
