<svg width="24" height="25" viewBox="0 0 24 25" fill="none" xmlns="http://www.w3.org/2000/svg">
<path d="M16.177 18.9549C16.4776 19.0992 16.8504 19.472 17.0308 19.7727C17.0909 20.1935 17.3916 18.5701 18.8586 17.6081M21.5 18.5C21.5 20.7091 19.7091 22.5 17.5 22.5C15.2909 22.5 13.5 20.7091 13.5 18.5C13.5 16.2908 15.2909 14.5 17.5 14.5C19.7091 14.5 21.5 16.2908 21.5 18.5Z" stroke="#141B34" stroke-width="1.5" stroke-linecap="round"/>
<path d="M11.0078 14.5C12.1124 14.5 13.0078 13.6046 13.0078 12.5C13.0078 11.3954 12.1124 10.5 11.0078 10.5C9.90324 10.5 9.00781 11.3954 9.00781 12.5C9.00781 13.6046 9.90324 14.5 11.0078 14.5Z" stroke="#141B34" stroke-width="1.5"/>
<path d="M7.50765 18.5C8.45765 17.6 9.25765 17.1 11.0327 17M19.5077 12C19.5077 11.2 19.5327 8.75 19.4077 7.75C19.3327 6.925 19.1077 5.8 18.0827 5.15C17.4577 4.825 16.8577 4.525 13.9827 4.5M7.95765 4.5C5.80765 4.5 4.13265 4.675 3.30766 5.7C2.60766 6.65666 2.64932 7.75 2.58265 8.1C2.43265 9.975 2.53265 16.525 2.53265 17.625C2.53265 18.775 2.45765 21.1125 4.03265 21.9C5.38265 22.575 6.78265 22.475 11.5327 22.5" stroke="#141B34" stroke-width="1.5" stroke-linecap="round"/>
<path d="M10.8582 2.503C10.2582 2.503 9.75814 2.503 9.25814 3.028C8.83314 3.428 8.89908 3.78123 8.73314 4.403C8.49962 5.278 8.3829 5.73948 8.70815 6.103C9.00631 6.4933 9.50746 6.49457 9.94999 6.49568L9.95815 6.49571C10.3832 6.5258 11.8117 6.51202 12.2332 6.49571C12.686 6.47817 13.0505 6.453 13.3582 6.053C13.6332 5.6955 13.4701 5.10056 13.3082 4.478C13.1484 3.86376 13.2082 3.553 12.7832 3.028C12.1832 2.428 11.4582 2.503 10.8582 2.503Z" stroke="#141B34" stroke-width="1.5" stroke-linecap="round"/>
</svg>
