<svg width="194" height="200" viewBox="0 0 194 200" fill="none" xmlns="http://www.w3.org/2000/svg">
<path d="M158.941 70.5241C175.56 70.5241 189.032 57.0518 189.032 40.4329C189.032 23.8141 175.56 10.3418 158.941 10.3418C142.322 10.3418 128.85 23.8141 128.85 40.4329C128.85 57.0518 142.322 70.5241 158.941 70.5241Z" fill="#7910B1"/>
<mask id="mask0_1038_17783" style="mask-type:luminance" maskUnits="userSpaceOnUse" x="132" y="0" width="54" height="68">
<path d="M185.791 40.4319C185.791 55.2625 173.769 67.284 158.939 67.284C144.108 67.284 132.088 55.2625 132.088 40.4319C132.088 25.6013 144.109 0 158.939 0C173.768 0 185.791 25.6013 185.791 40.4319Z" fill="white"/>
</mask>
<g mask="url(#mask0_1038_17783)">
<path d="M149.458 45.3325H189.23C189.23 45.1097 189.23 44.8869 189.23 44.6775C189.224 43.7639 188.857 42.8895 188.209 42.2453C187.561 41.6011 186.685 41.2394 185.771 41.2392C184.473 41.2377 183.229 40.7215 182.311 39.8037C181.394 38.886 180.877 37.6417 180.876 36.3439V32.8598C180.874 31.5612 180.357 30.3164 179.438 29.3988C178.519 28.4811 177.274 27.9657 175.975 27.9657C174.676 27.9639 173.432 27.4468 172.514 26.5279C171.596 25.609 171.081 24.3635 171.081 23.0649V11.7773H145.086V21.0032C145.086 22.8444 144.572 24.6491 143.602 26.2143C142.632 27.7794 141.245 29.0428 139.596 29.8625C137.948 30.6823 136.561 31.9458 135.591 33.5109C134.621 35.0761 134.107 36.8807 134.107 38.7219V46.62L149.457 48.1048L149.458 45.3325Z" fill="#1B1C1E"/>
<path d="M191.131 72.0184H122.797V46.2846L157.579 39.3555L191.131 46.2846V72.0184Z" fill="white"/>
<path d="M167.339 22.2543C172.43 17.1638 172.43 8.91043 167.339 3.8199C162.249 -1.27062 153.995 -1.27063 148.905 3.81989C143.814 8.91042 143.814 17.1638 148.905 22.2543C153.995 27.3448 162.249 27.3448 167.339 22.2543Z" fill="#1B1C1E"/>
<path d="M164.746 23.7578H151.775V46.0889H164.746V23.7578Z" fill="#BC8271"/>
<path d="M168.885 17.7779C168.885 24.7215 164.075 32.0461 158.143 32.0461C152.211 32.0461 147.402 24.7215 147.402 17.7779C147.402 10.8344 152.211 5.20508 158.143 5.20508C164.075 5.20508 168.885 10.8344 168.885 17.7779Z" fill="#BC8271"/>
<path d="M158.142 32.2898C155.969 32.2898 153.832 31.3386 151.966 29.5376C151.919 29.4924 151.892 29.4304 151.891 29.3653C151.89 29.3003 151.914 29.2374 151.959 29.1906C152.005 29.1438 152.067 29.1168 152.132 29.1157C152.197 29.1145 152.26 29.1393 152.306 29.1845C154.081 30.8942 156.093 31.7986 158.142 31.7986C160.369 31.7986 162.531 30.7449 164.405 28.7501C164.426 28.723 164.452 28.7005 164.482 28.6842C164.512 28.6678 164.545 28.6579 164.58 28.6551C164.614 28.6523 164.648 28.6567 164.68 28.6679C164.713 28.6791 164.742 28.697 164.767 28.7203C164.793 28.7437 164.812 28.772 164.826 28.8035C164.839 28.835 164.846 28.8689 164.846 28.9032C164.845 28.9374 164.838 28.9712 164.824 29.0024C164.81 29.0336 164.789 29.0614 164.763 29.0842C162.795 31.1827 160.504 32.2898 158.142 32.2898Z" fill="#363E44"/>
<path d="M162.308 8.95179L163.036 13.4383H168.803C168.774 10.6232 167.635 7.9332 165.635 5.95273C163.634 3.97225 160.932 2.86133 158.117 2.86133C155.302 2.86133 152.6 3.97225 150.6 5.95273C148.599 7.9332 147.46 10.6232 147.432 13.4383H161.741L162.308 8.95179Z" fill="#1B1C1E"/>
<path d="M148.501 22.5479C149.932 21.8948 150.305 19.6419 149.335 17.5159C148.365 15.3899 146.418 14.1958 144.987 14.8488C143.557 15.5019 143.183 17.7547 144.153 19.8808C145.123 22.0068 147.07 23.2009 148.501 22.5479Z" fill="#BC8271"/>
<path d="M146.037 20.6147C145.978 20.6148 145.922 20.5938 145.877 20.5557C145.512 20.2359 145.22 19.8407 145.022 19.3973C144.441 18.1231 144.698 16.7542 145.596 16.3443C145.775 16.2669 145.968 16.2262 146.163 16.2247C146.358 16.2231 146.551 16.2608 146.732 16.3354C146.764 16.3452 146.794 16.3615 146.819 16.3833C146.845 16.4051 146.866 16.4319 146.881 16.4621C146.896 16.4922 146.904 16.5251 146.906 16.5587C146.907 16.5923 146.902 16.6259 146.89 16.6573C146.879 16.6888 146.86 16.7176 146.837 16.7418C146.814 16.766 146.786 16.7851 146.755 16.7981C146.724 16.811 146.69 16.8174 146.657 16.817C146.623 16.8165 146.59 16.8092 146.559 16.7954C146.439 16.7449 146.31 16.7188 146.179 16.7188C146.049 16.7188 145.92 16.7449 145.799 16.7954C145.16 17.0872 145.009 18.1877 145.465 19.1979C145.634 19.5761 145.882 19.9134 146.193 20.187C146.231 20.2195 146.259 20.263 146.271 20.3116C146.284 20.3603 146.282 20.4117 146.264 20.4589C146.247 20.5061 146.215 20.5468 146.174 20.5755C146.133 20.6041 146.084 20.6194 146.033 20.6192L146.037 20.6147Z" fill="#363E44"/>
<path d="M148.123 22.5671C148.072 22.5673 148.021 22.5511 147.98 22.5209C147.938 22.4907 147.907 22.448 147.891 22.3989C147.399 20.9075 147.15 19.3468 147.154 17.7765C147.154 16.988 147.216 16.2007 147.339 15.4219C147.352 15.3602 147.389 15.3058 147.441 15.27C147.492 15.2342 147.556 15.2197 147.619 15.2296C147.681 15.2395 147.737 15.2729 147.775 15.323C147.814 15.3731 147.832 15.436 147.825 15.4988C147.705 16.2521 147.645 17.0137 147.646 17.7765C147.642 19.2941 147.882 20.8025 148.356 22.2441C148.366 22.2747 148.371 22.3071 148.368 22.3393C148.366 22.3716 148.357 22.403 148.343 22.4319C148.328 22.4608 148.308 22.4865 148.284 22.5076C148.259 22.5287 148.231 22.5448 148.2 22.5548C148.175 22.5633 148.15 22.5674 148.123 22.5671Z" fill="#363E44"/>
<path d="M166.83 17.5297C165.86 19.656 166.235 21.9093 167.666 22.562C169.097 23.2147 171.043 22.0206 172.01 19.8888C172.977 17.7569 172.607 15.5103 171.175 14.8576C169.744 14.2049 167.801 15.4045 166.83 17.5297Z" fill="#BC8271"/>
<path d="M170.132 20.6153C170.082 20.6155 170.033 20.6002 169.992 20.5716C169.95 20.5429 169.919 20.5022 169.901 20.455C169.884 20.4078 169.882 20.3564 169.894 20.3077C169.907 20.2591 169.935 20.2156 169.973 20.1831C170.284 19.9095 170.532 19.5722 170.7 19.194C171.16 18.1838 171.01 17.0778 170.366 16.7915C170.246 16.741 170.117 16.7149 169.987 16.7149C169.856 16.7149 169.727 16.741 169.607 16.7915C169.576 16.8053 169.543 16.8126 169.509 16.8131C169.476 16.8135 169.442 16.8071 169.411 16.7942C169.38 16.7812 169.352 16.762 169.329 16.7378C169.305 16.7136 169.287 16.6849 169.275 16.6534C169.264 16.622 169.258 16.5884 169.26 16.5548C169.262 16.5212 169.27 16.4883 169.285 16.4582C169.3 16.428 169.321 16.4012 169.346 16.3794C169.372 16.3576 169.402 16.3413 169.434 16.3315C169.614 16.2569 169.808 16.2192 170.003 16.2207C170.198 16.2223 170.391 16.263 170.57 16.3404C171.468 16.7503 171.725 18.1225 171.144 19.3934C170.946 19.8371 170.654 20.2324 170.288 20.5518C170.246 20.591 170.19 20.6135 170.132 20.6153Z" fill="#363E44"/>
<path d="M168.046 22.5689C168.02 22.5692 167.994 22.565 167.969 22.5566C167.907 22.536 167.856 22.4917 167.827 22.4335C167.798 22.3752 167.793 22.3077 167.813 22.2458C168.287 20.8042 168.527 19.2959 168.524 17.7783C168.524 17.0155 168.464 16.2539 168.346 15.5005C168.335 15.4363 168.351 15.3706 168.389 15.318C168.428 15.2653 168.485 15.23 168.549 15.2198C168.614 15.2096 168.679 15.2254 168.732 15.2636C168.785 15.3018 168.82 15.3594 168.83 15.4237C168.953 16.2025 169.015 16.9898 169.015 17.7783C169.019 19.3486 168.77 20.9093 168.279 22.4007C168.263 22.4498 168.232 22.4926 168.19 22.5229C168.148 22.5531 168.098 22.5692 168.046 22.5689Z" fill="#363E44"/>
<path d="M158.357 23.9929C158.304 23.9928 158.252 23.9755 158.21 23.9436C158.167 23.9116 158.136 23.8668 158.121 23.8158C158.106 23.7648 158.108 23.7103 158.127 23.6605C158.146 23.6107 158.18 23.5682 158.225 23.5395C158.559 23.3279 158.76 23.0862 158.823 22.8222C158.885 22.5583 158.789 22.3277 158.64 21.9902C158.49 21.6745 158.378 21.3421 158.306 21C158.204 20.4519 158.223 19.8881 158.363 19.3482C158.38 19.2876 158.42 19.2359 158.474 19.2039C158.528 19.1719 158.593 19.162 158.654 19.1763C158.716 19.1907 158.769 19.2281 158.804 19.2809C158.838 19.3336 158.851 19.3976 158.839 19.4596C158.718 19.9306 158.7 20.4223 158.787 20.9009C158.853 21.2069 158.955 21.504 159.09 21.7864C159.251 22.1528 159.403 22.4981 159.3 22.9303C159.207 23.3223 158.934 23.6654 158.489 23.9483C158.45 23.9757 158.404 23.9912 158.357 23.9929Z" fill="#363E44"/>
<path d="M156.908 26.3487C156.685 26.3527 156.463 26.3026 156.263 26.2027C156.063 26.1029 155.89 25.9562 155.759 25.7751C155.611 25.5488 155.53 25.2853 155.526 25.0151C155.521 24.7448 155.594 24.4788 155.734 24.248C155.769 24.1954 155.822 24.1579 155.883 24.1434C155.944 24.1288 156.009 24.1383 156.063 24.1698C156.118 24.2013 156.158 24.2525 156.176 24.3128C156.194 24.3731 156.188 24.438 156.16 24.4942C156.065 24.6442 156.015 24.818 156.015 24.9954C156.015 25.1728 156.065 25.3466 156.16 25.4966C156.424 25.8764 156.984 25.9744 157.434 25.7194C157.462 25.7009 157.494 25.6885 157.527 25.6828C157.56 25.6771 157.594 25.6782 157.627 25.6862C157.66 25.6942 157.69 25.7087 157.717 25.729C157.744 25.7494 157.766 25.775 157.783 25.8043C157.8 25.8336 157.81 25.866 157.813 25.8995C157.817 25.9329 157.814 25.9668 157.804 25.9989C157.794 26.0311 157.777 26.0608 157.755 26.0863C157.733 26.1117 157.706 26.1324 157.676 26.1471C157.441 26.2793 157.177 26.3488 156.908 26.3487Z" fill="#363E44"/>
<path d="M147.515 12.3716H147.485C147.421 12.3636 147.362 12.3302 147.322 12.2788C147.282 12.2275 147.263 12.1623 147.271 12.0976C147.57 9.65484 148.688 7.38547 150.443 5.66035C152.198 3.93523 154.486 2.85636 156.934 2.60005C156.997 2.59628 157.059 2.61699 157.107 2.65786C157.156 2.69874 157.186 2.75664 157.193 2.81956C157.2 2.88248 157.182 2.94557 157.144 2.99574C157.105 3.04592 157.049 3.07932 156.986 3.08902C154.649 3.33347 152.464 4.36322 150.788 6.01003C149.112 7.65683 148.045 9.82333 147.759 12.1556C147.752 12.2151 147.723 12.27 147.678 12.3097C147.633 12.3495 147.575 12.3715 147.515 12.3716Z" fill="#BC8271"/>
<path d="M168.668 12.0231C168.61 12.023 168.554 12.0021 168.509 11.9641C168.465 11.9261 168.436 11.8736 168.427 11.8159C168.065 9.4923 166.925 7.3603 165.194 5.76873C163.463 4.17715 161.243 3.22024 158.897 3.05455C158.835 3.04617 158.778 3.01442 158.739 2.96578C158.699 2.91713 158.68 2.85525 158.684 2.79275C158.689 2.73026 158.717 2.67185 158.763 2.62943C158.809 2.58701 158.87 2.56378 158.932 2.56447C161.389 2.73795 163.714 3.74 165.526 5.40666C167.339 7.07331 168.532 9.30588 168.911 11.7391C168.916 11.7709 168.915 11.8034 168.908 11.8347C168.9 11.8661 168.886 11.8956 168.868 11.9217C168.849 11.9477 168.825 11.9698 168.797 11.9867C168.77 12.0035 168.739 12.0147 168.707 12.0197C168.695 12.022 168.681 12.0231 168.668 12.0231Z" fill="#BC8271"/>
<path d="M158.034 54.152C167.577 54.152 175.314 51.0483 175.314 47.2196C175.314 43.3909 167.577 40.2871 158.034 40.2871C148.49 40.2871 140.754 43.3909 140.754 47.2196C140.754 51.0483 148.49 54.152 158.034 54.152Z" fill="#BC8271"/>
<path d="M165.867 15.9707H165.839C165.825 16.0286 165.786 16.1021 165.728 16.101C165.666 16.2024 165.614 16.3094 165.572 16.4207C165.484 16.5878 165.231 16.4385 165.319 16.2725C165.379 16.1612 164.985 16.375 164.807 16.4419C164.25 16.6557 163.693 16.8439 163.118 17.0155C162.852 17.0957 162.586 17.177 162.316 17.2483C162.101 17.304 161.391 17.5289 161.334 17.4955C160.909 17.8796 160.531 18.313 160.209 18.7865C160.969 19.0932 161.774 19.2731 162.593 19.3189C162.593 19.301 162.6 19.2832 162.604 19.2654C162.635 19.085 165.734 18.3532 165.817 18.4857C166.631 17.955 167.333 17.2706 167.884 16.4708C167.239 16.2105 166.56 16.0421 165.867 15.9707Z" fill="white"/>
<path d="M163.599 16.1475C162.753 16.4188 161.979 16.8755 161.332 17.484C161.404 18.0858 161.698 18.6388 162.157 19.0345C162.279 19.1378 162.41 19.2296 162.548 19.3085C163.202 19.3537 163.859 19.2836 164.489 19.1013C164.949 18.9591 165.388 18.7549 165.794 18.4943C166.034 18.117 166.165 17.6811 166.173 17.2343C166.181 16.7875 166.065 16.3471 165.84 15.9614C165.088 15.8749 164.326 15.9381 163.599 16.1475Z" fill="#1B1C1E"/>
<path d="M150.677 16.1797H150.705C150.72 16.2376 150.759 16.3122 150.817 16.31C150.879 16.4109 150.932 16.518 150.972 16.6297C151.062 16.7967 151.314 16.6486 151.225 16.4826C151.166 16.3713 151.559 16.584 151.738 16.6519C152.295 16.8658 152.851 17.054 153.427 17.2245C153.694 17.3047 153.96 17.3871 154.228 17.4572C154.443 17.5141 155.155 17.7379 155.211 17.7045C155.635 18.0885 156.012 18.521 156.336 18.9932C155.575 19.3 154.77 19.4803 153.952 19.5267C153.947 19.5088 153.944 19.4905 153.941 19.4722C153.91 19.2917 150.81 18.561 150.726 18.6925C149.913 18.1619 149.211 17.4778 148.66 16.6787C149.306 16.4184 149.985 16.2504 150.677 16.1797Z" fill="white"/>
<path d="M152.948 16.3553C153.793 16.6282 154.567 17.0868 155.213 17.6975C155.168 18.0759 155.034 18.4384 154.823 18.7556C154.612 19.0727 154.329 19.3357 153.997 19.523C153.343 19.568 152.686 19.4983 152.055 19.317C151.595 19.1742 151.157 18.9701 150.751 18.7099C150.511 18.3327 150.38 17.8966 150.372 17.4495C150.363 17.0025 150.478 16.5618 150.704 16.176C151.457 16.0877 152.219 16.1486 152.948 16.3553Z" fill="#1B1C1E"/>
</g>
<path d="M150.456 148.392C160.515 138.332 160.515 122.023 150.456 111.964C140.397 101.905 124.088 101.905 114.028 111.964C103.969 122.023 103.969 138.332 114.028 148.392C124.088 158.451 140.397 158.451 150.456 148.392Z" fill="#7910B1"/>
<path d="M138.796 115.908H124.529V135.025H138.796V115.908Z" fill="#E2A18D"/>
<path d="M131.468 137.65C137.716 137.65 142.78 135.618 142.78 133.112C142.78 130.606 137.716 128.574 131.468 128.574C125.221 128.574 120.156 130.606 120.156 133.112C120.156 135.618 125.221 137.65 131.468 137.65Z" fill="#E2A18D"/>
<path d="M124.293 110.293C125.406 111.95 125.156 114.058 123.746 115.002C122.336 115.945 120.293 115.366 119.179 113.709C118.065 112.051 118.316 109.943 119.726 108.999C121.136 108.056 123.183 108.635 124.293 110.293Z" fill="#E2A18D"/>
<path d="M138.963 110.253C137.862 111.916 138.118 114.022 139.534 114.959C140.95 115.896 142.987 115.305 144.087 113.642C145.188 111.979 144.932 109.872 143.516 108.937C142.1 108.001 140.066 108.591 138.963 110.253Z" fill="#E2A18D"/>
<path d="M131.993 127.265C121.318 127.265 122.476 110.469 122.476 110.469L140.919 110.402C140.919 110.402 142.973 127.265 131.993 127.265Z" fill="#B77250"/>
<path d="M134.213 106.334C134.54 102.702 131.86 99.4932 128.228 99.1663C124.597 98.8395 121.387 101.519 121.061 105.151C120.734 108.782 123.413 111.992 127.045 112.318C130.677 112.645 133.886 109.966 134.213 106.334Z" fill="#B77250"/>
<path d="M140.555 112.05C140.571 117.804 136.991 114.605 132.09 114.618C127.189 114.632 122.831 117.848 122.816 112.095C122.802 106.343 126.683 103.244 131.58 103.231C136.478 103.217 140.541 106.296 140.555 112.05Z" fill="#E2A18D"/>
<path d="M140.419 115.083C140.382 115.083 140.346 115.074 140.313 115.058C140.28 115.042 140.25 115.018 140.227 114.989C140.204 114.96 140.188 114.927 140.18 114.891C140.172 114.855 140.172 114.817 140.18 114.781C140.569 113.086 140.586 111.327 140.23 109.624C140.223 109.593 140.223 109.56 140.229 109.528C140.235 109.497 140.247 109.467 140.265 109.44C140.282 109.413 140.305 109.389 140.331 109.371C140.358 109.353 140.388 109.34 140.419 109.333C140.451 109.327 140.483 109.326 140.515 109.332C140.547 109.338 140.577 109.35 140.604 109.368C140.631 109.385 140.654 109.408 140.672 109.435C140.691 109.461 140.703 109.491 140.71 109.523C141.082 111.295 141.064 113.127 140.659 114.893C140.646 114.947 140.616 114.995 140.572 115.029C140.529 115.064 140.475 115.083 140.419 115.083Z" fill="#B77250"/>
<path d="M122.961 115.064C122.905 115.064 122.852 115.045 122.808 115.01C122.765 114.976 122.735 114.927 122.722 114.873C122.314 113.109 122.294 111.277 122.663 109.504C122.67 109.472 122.683 109.442 122.701 109.416C122.719 109.389 122.742 109.366 122.769 109.349C122.796 109.331 122.826 109.319 122.858 109.313C122.889 109.307 122.922 109.307 122.953 109.314C122.985 109.32 123.015 109.333 123.041 109.351C123.068 109.369 123.091 109.393 123.108 109.42C123.126 109.446 123.138 109.477 123.144 109.508C123.15 109.54 123.15 109.572 123.143 109.604C122.789 111.307 122.809 113.067 123.2 114.762C123.208 114.794 123.209 114.826 123.203 114.858C123.198 114.89 123.187 114.92 123.17 114.948C123.153 114.975 123.13 114.999 123.104 115.018C123.078 115.037 123.048 115.05 123.016 115.057C122.998 115.062 122.979 115.064 122.961 115.064Z" fill="#B77250"/>
<path d="M132.169 115.089C132.117 115.088 132.067 115.071 132.025 115.041C131.984 115.01 131.953 114.967 131.937 114.917C131.922 114.868 131.922 114.815 131.938 114.766C131.954 114.717 131.986 114.674 132.028 114.643C132.186 114.532 132.377 114.366 132.388 114.189C132.396 114.088 132.345 114.004 132.247 113.855C132.103 113.656 132.005 113.428 131.96 113.186C131.92 112.903 131.958 112.614 132.071 112.351C132.082 112.32 132.099 112.291 132.122 112.266C132.144 112.241 132.172 112.221 132.202 112.208C132.232 112.194 132.265 112.186 132.299 112.186C132.332 112.185 132.365 112.191 132.396 112.204C132.427 112.216 132.455 112.235 132.479 112.259C132.502 112.282 132.521 112.311 132.533 112.342C132.545 112.373 132.551 112.406 132.55 112.44C132.549 112.473 132.541 112.506 132.527 112.536C132.448 112.716 132.42 112.915 132.448 113.11C132.482 113.283 132.555 113.447 132.661 113.589C132.773 113.761 132.9 113.956 132.884 114.226C132.864 114.524 132.673 114.802 132.314 115.05C132.271 115.078 132.22 115.092 132.169 115.089Z" fill="#363E44"/>
<path d="M130.791 117.566C130.233 117.567 129.688 117.395 129.231 117.074C128.899 116.833 128.627 116.519 128.436 116.155C128.418 116.126 128.406 116.094 128.401 116.06C128.396 116.027 128.398 115.992 128.407 115.96C128.416 115.927 128.432 115.896 128.453 115.87C128.475 115.843 128.501 115.822 128.532 115.806C128.562 115.791 128.595 115.782 128.629 115.78C128.663 115.778 128.697 115.783 128.729 115.795C128.761 115.806 128.79 115.825 128.814 115.848C128.839 115.872 128.858 115.901 128.871 115.932C129.025 116.228 129.247 116.484 129.518 116.68C129.908 116.954 130.377 117.095 130.854 117.079C130.917 117.081 130.976 117.107 131.021 117.152C131.065 117.196 131.091 117.255 131.093 117.318C131.095 117.381 131.072 117.442 131.031 117.489C130.989 117.536 130.931 117.565 130.869 117.571L130.791 117.566Z" fill="white"/>
<path d="M121.801 109.028C121.801 109.028 126.497 109.957 131.68 104.413C131.68 104.413 140.213 116.765 147.913 102.743C147.913 102.743 143.722 104.355 141.658 101.387C138.375 96.6645 130.144 92.5801 126.411 100.83L121.801 109.028Z" fill="#B77250"/>
<path d="M138.371 110.141H138.348C138.334 110.191 138.301 110.252 138.249 110.252C138.195 110.339 138.15 110.431 138.115 110.526C138.039 110.669 137.823 110.542 137.899 110.4C137.95 110.303 137.609 110.487 137.46 110.545C136.984 110.728 136.502 110.889 136.012 111.035C135.789 111.104 135.556 111.174 135.326 111.234C135.142 111.282 134.533 111.475 134.485 111.446C134.121 111.775 133.798 112.146 133.521 112.551C134.172 112.814 134.861 112.968 135.562 113.008L135.572 112.961C135.599 112.807 138.252 112.181 138.323 112.298C139.019 111.844 139.62 111.258 140.092 110.574C139.541 110.35 138.962 110.204 138.371 110.141Z" fill="white"/>
<path d="M136.429 110.3C135.704 110.533 135.041 110.925 134.488 111.448C134.55 111.963 134.802 112.436 135.194 112.775C135.298 112.863 135.41 112.942 135.529 113.009C136.088 113.048 136.65 112.989 137.189 112.833C137.582 112.71 137.957 112.535 138.303 112.313C138.508 111.99 138.621 111.616 138.628 111.234C138.635 110.851 138.537 110.474 138.343 110.144C137.701 110.07 137.05 110.123 136.429 110.3Z" fill="#1B1C1E"/>
<path d="M125.365 110.326H125.39C125.402 110.375 125.436 110.438 125.488 110.438C125.542 110.524 125.586 110.615 125.622 110.71C125.697 110.854 125.913 110.727 125.838 110.585C125.786 110.489 126.127 110.673 126.277 110.729C126.752 110.912 127.234 111.074 127.724 111.221C127.953 111.289 128.18 111.359 128.411 111.419C128.594 111.468 129.204 111.659 129.252 111.63C129.615 111.96 129.938 112.33 130.215 112.735C129.564 112.998 128.875 113.153 128.174 113.192C128.174 113.176 128.168 113.162 128.164 113.145C128.138 112.992 125.491 112.366 125.414 112.484C124.718 112.029 124.117 111.443 123.645 110.758C124.195 110.535 124.774 110.389 125.365 110.326Z" fill="white"/>
<path d="M127.31 110.475C128.033 110.709 128.696 111.101 129.249 111.623C129.188 112.138 128.936 112.612 128.543 112.95C128.439 113.039 128.327 113.117 128.209 113.185C127.649 113.223 127.086 113.164 126.547 113.008C126.154 112.886 125.779 112.711 125.433 112.489C125.227 112.166 125.115 111.793 125.108 111.41C125.101 111.028 125.199 110.65 125.393 110.32C126.036 110.245 126.687 110.298 127.31 110.475Z" fill="#1B1C1E"/>
<path d="M31.2805 196.028C45.6405 196.028 57.2816 184.387 57.2816 170.027C57.2816 155.667 45.6405 144.025 31.2805 144.025C16.9204 144.025 5.2793 155.667 5.2793 170.027C5.2793 184.387 16.9204 196.028 31.2805 196.028Z" fill="#7910B1"/>
<path d="M31.5793 174.225L8.64453 178.531C9.85571 181.756 11.7445 184.684 14.1836 187.117C23.6255 196.558 38.9317 196.558 48.378 187.117C50.8825 184.62 52.8056 181.601 54.0107 178.276L31.5793 174.225Z" fill="#F3F3F3"/>
<path d="M41.2158 168.615C44.0996 168.615 46.4374 166.277 46.4374 163.393C46.4374 160.51 44.0996 158.172 41.2158 158.172C38.3319 158.172 35.9941 160.51 35.9941 163.393C35.9941 166.277 38.3319 168.615 41.2158 168.615Z" fill="#1B1C1E"/>
<path d="M43.5787 174.377C46.4105 173.831 48.2641 171.094 47.7188 168.262C47.1735 165.43 44.4358 163.577 41.604 164.122C38.7722 164.667 36.9186 167.405 37.4639 170.237C38.0093 173.069 40.747 174.922 43.5787 174.377Z" fill="#1B1C1E"/>
<path d="M29.4784 140.925C32.1973 139.123 35.032 139.353 36.8453 140.099C42.0001 142.215 45.0397 148.799 43.9381 156.969L19.6088 157.428C18.4605 152.263 17.9592 146.917 20.6413 143.542C24.1064 139.18 28.9338 140.949 29.4784 140.925Z" fill="#1B1C1E"/>
<path d="M30.5066 182.641C31.3146 182.695 32.1254 182.589 32.8925 182.329C33.6596 182.07 34.368 181.661 34.9774 181.128C35.5867 180.595 36.085 179.946 36.4437 179.22C36.8024 178.494 37.0146 177.705 37.0682 176.897L38.1664 160.374L25.8597 159.557L24.7615 176.079C24.6536 177.711 25.1982 179.319 26.2756 180.549C27.3529 181.78 28.8748 182.532 30.5066 182.641Z" fill="#84524D"/>
<path d="M20.9798 156.377C21.119 163.078 25.8561 168.414 31.5611 168.295C37.2661 168.176 41.7738 162.647 41.6345 155.946C41.4953 149.245 36.7582 144.438 31.0532 144.557C25.3482 144.676 20.8394 149.676 20.9798 156.377Z" fill="#84524D"/>
<path d="M39.8709 153.884C38.6245 155.844 38.9675 158.293 40.6361 159.353C42.3046 160.412 44.6659 159.687 45.9122 157.723C47.1586 155.759 46.8144 153.314 45.1459 152.254C43.4774 151.194 41.1161 151.924 39.8709 153.884Z" fill="#84524D"/>
<path d="M22.7812 154.242C24.1078 156.148 23.8672 158.61 22.2444 159.738C20.6215 160.866 18.2346 160.236 16.9047 158.329C15.5748 156.422 15.8198 153.962 17.4415 152.833C19.0633 151.705 21.4535 152.336 22.7812 154.242Z" fill="#84524D"/>
<path d="M31.3665 168.541C29.2346 168.541 27.1796 167.803 25.4131 166.4C25.3621 166.359 25.3293 166.3 25.3219 166.236C25.3145 166.171 25.3331 166.106 25.3735 166.055C25.414 166.004 25.4731 165.971 25.5377 165.964C25.6024 165.956 25.6673 165.975 25.7183 166.015C27.448 167.389 29.4696 168.091 31.5491 168.048C33.6766 168.004 35.6937 167.189 37.3845 165.692C37.4332 165.649 37.4971 165.627 37.5621 165.631C37.5942 165.633 37.6257 165.642 37.6547 165.656C37.6836 165.67 37.7095 165.689 37.7309 165.714C37.7522 165.738 37.7686 165.766 37.7791 165.796C37.7896 165.827 37.794 165.859 37.792 165.891C37.7901 165.923 37.7818 165.955 37.7677 165.984C37.7535 166.013 37.7339 166.039 37.7097 166.06C35.9276 167.635 33.8046 168.492 31.5603 168.539L31.3665 168.541Z" fill="#1B1C1E"/>
<path d="M21.417 159.849C21.3625 159.849 21.3096 159.831 21.2667 159.797C21.2237 159.764 21.1931 159.717 21.1798 159.664C20.9813 158.89 20.8482 158.101 20.7821 157.305C20.7794 157.273 20.7831 157.241 20.7928 157.21C20.8026 157.179 20.8184 157.151 20.8392 157.126C20.8599 157.101 20.8854 157.081 20.914 157.066C20.9426 157.052 20.9739 157.043 21.006 157.04C21.0381 157.037 21.0704 157.041 21.1011 157.051C21.1318 157.06 21.1603 157.076 21.1849 157.097C21.2095 157.118 21.2298 157.143 21.2446 157.172C21.2594 157.2 21.2684 157.232 21.2711 157.264C21.335 158.033 21.4636 158.795 21.6554 159.543C21.6634 159.574 21.6652 159.606 21.6606 159.638C21.656 159.67 21.6452 159.701 21.6288 159.729C21.6123 159.756 21.5906 159.781 21.5647 159.8C21.5389 159.819 21.5095 159.833 21.4783 159.841C21.4583 159.847 21.4377 159.849 21.417 159.849Z" fill="#1B1C1E"/>
<path d="M41.3397 159.378C41.3226 159.38 41.3054 159.38 41.2884 159.378C41.2569 159.372 41.227 159.359 41.2004 159.341C41.1739 159.323 41.1511 159.3 41.1335 159.273C41.1159 159.246 41.1038 159.216 41.0979 159.184C41.092 159.153 41.0924 159.12 41.0991 159.089C41.2793 158.217 41.3758 157.33 41.3876 156.44C41.3881 156.375 41.4142 156.314 41.4601 156.268C41.506 156.223 41.568 156.197 41.6326 156.197C41.6978 156.198 41.7599 156.225 41.8054 156.272C41.8508 156.319 41.876 156.382 41.8754 156.447C41.8639 157.368 41.7635 158.287 41.5758 159.189C41.5635 159.243 41.5335 159.29 41.4906 159.325C41.4478 159.359 41.3946 159.378 41.3397 159.378Z" fill="#1B1C1E"/>
<path d="M30.8634 160.255C30.8155 160.256 30.7685 160.242 30.7287 160.215C30.3154 159.942 30.0905 159.635 30.0604 159.301C30.0325 159.001 30.1651 158.785 30.2943 158.577C30.4172 158.404 30.4995 158.206 30.5349 157.998C30.5615 157.763 30.523 157.525 30.4235 157.31C30.4021 157.251 30.4041 157.187 30.429 157.129C30.4538 157.071 30.4997 157.026 30.5573 157.001C30.6149 156.976 30.6798 156.974 30.7387 156.995C30.7977 157.017 30.8463 157.06 30.8746 157.116C31.0099 157.412 31.0607 157.74 31.0216 158.063C30.9775 158.341 30.8716 158.604 30.712 158.835C30.6006 159.017 30.5371 159.126 30.5493 159.256C30.5661 159.433 30.7175 159.618 31.0004 159.805C31.0427 159.835 31.0745 159.877 31.0914 159.926C31.1082 159.975 31.1091 160.028 31.094 160.077C31.0789 160.127 31.0486 160.17 31.0074 160.201C30.9662 160.233 30.9162 160.25 30.8646 160.251L30.8634 160.255Z" fill="#1B1C1E"/>
<path d="M32.4302 162.491H32.4113C32.349 162.487 32.2906 162.459 32.248 162.414C32.2054 162.368 32.1816 162.308 32.1816 162.245C32.1816 162.183 32.2054 162.123 32.248 162.077C32.2906 162.032 32.349 162.004 32.4113 162H32.4291C32.9901 162.002 33.5369 161.823 33.9884 161.49C34.3032 161.25 34.5583 160.941 34.7336 160.586C34.7482 160.557 34.7684 160.532 34.7929 160.511C34.8175 160.49 34.846 160.474 34.8768 160.463C34.9075 160.453 34.94 160.449 34.9723 160.452C35.0046 160.454 35.0361 160.463 35.0649 160.478C35.0938 160.492 35.1196 160.513 35.1406 160.537C35.1617 160.562 35.1778 160.59 35.1879 160.621C35.198 160.652 35.2019 160.684 35.1994 160.716C35.197 160.749 35.1882 160.78 35.1735 160.809C34.9641 161.232 34.6591 161.601 34.2825 161.886C33.746 162.282 33.0966 162.494 32.4302 162.491Z" fill="#1B1C1E"/>
<path d="M26.8093 159.869C25.662 159.851 24.5308 159.596 23.4867 159.12C20.6287 157.853 18.9278 155.416 19.6997 153.686C20.4716 151.957 23.4143 151.581 26.2713 152.848C29.1283 154.114 30.8291 156.551 30.0583 158.28C29.5983 159.318 28.3508 159.869 26.8093 159.869ZM22.9109 152.576C21.5821 152.576 20.5273 153.021 20.1453 153.886C19.4892 155.367 21.0775 157.514 23.6872 158.675C26.2969 159.837 28.9545 159.566 29.6117 158.086C30.2688 156.606 28.6794 154.458 26.0697 153.297C25.0766 152.843 24.0005 152.598 22.9087 152.578L22.9109 152.576Z" fill="white"/>
<path d="M35.3586 159.604C33.817 159.604 32.574 159.053 32.1095 158.015C31.3432 156.287 33.044 153.848 35.9021 152.582C38.7602 151.316 41.7074 151.691 42.4737 153.422C43.24 155.153 41.5392 157.588 38.6867 158.854C37.641 159.331 36.5078 159.586 35.3586 159.604ZM32.5584 157.821C33.2156 159.304 35.8732 159.568 38.4829 158.411C41.0925 157.253 42.6809 155.108 42.0248 153.621C41.3688 152.134 38.7101 151.875 36.1004 153.032C33.4907 154.189 31.9024 156.334 32.5584 157.821Z" fill="white"/>
<path d="M32.048 157.357H29.9874C29.9251 157.353 29.8668 157.325 29.8241 157.279C29.7815 157.234 29.7578 157.174 29.7578 157.111C29.7578 157.049 29.7815 156.989 29.8241 156.943C29.8668 156.898 29.9251 156.87 29.9874 156.866H32.048C32.0816 156.864 32.1154 156.868 32.1472 156.88C32.1789 156.891 32.208 156.909 32.2326 156.932C32.2573 156.955 32.2769 156.982 32.2903 157.013C32.3038 157.044 32.3107 157.078 32.3107 157.111C32.3107 157.145 32.3038 157.178 32.2903 157.209C32.2769 157.24 32.2573 157.268 32.2326 157.291C32.208 157.314 32.1789 157.332 32.1472 157.343C32.1154 157.355 32.0816 157.359 32.048 157.357Z" fill="white"/>
<path d="M44.9281 178.915C47.351 178.449 48.9368 176.107 48.4703 173.684C48.0037 171.261 45.6614 169.675 43.2385 170.142C40.8157 170.608 39.2298 172.95 39.6964 175.373C40.1629 177.796 42.5053 179.382 44.9281 178.915Z" fill="#1B1C1E"/>
<path d="M49.1613 182.886C50.5446 180.843 50.0097 178.065 47.9666 176.682C45.9235 175.299 43.1458 175.834 41.7625 177.877C40.3792 179.92 40.9141 182.698 42.9572 184.081C45.0003 185.464 47.778 184.929 49.1613 182.886Z" fill="#1B1C1E"/>
<path d="M49.1184 187.67C50.2981 186.033 49.9275 183.749 48.2906 182.57C46.6537 181.39 44.3704 181.761 43.1907 183.397C42.011 185.034 42.3816 187.318 44.0185 188.497C45.6554 189.677 47.9387 189.306 49.1184 187.67Z" fill="#1B1C1E"/>
<path d="M46.3133 184.875L39.373 196.897H53.2547L46.3133 184.875Z" fill="#1B1C1E"/>
<path d="M38.7024 154.271H38.6757C38.6612 154.327 38.6244 154.398 38.5643 154.397C38.504 154.495 38.4536 154.599 38.4139 154.707C38.3281 154.868 38.0798 154.725 38.1689 154.563C38.2268 154.452 37.8414 154.664 37.6721 154.728C37.1341 154.935 36.5883 155.118 36.037 155.285C35.7786 155.363 35.5213 155.442 35.2573 155.508C35.049 155.562 34.3607 155.78 34.3061 155.747C33.8952 156.12 33.5296 156.54 33.2168 156.998C33.953 157.295 34.733 157.47 35.5258 157.514C35.5258 157.496 35.5336 157.479 35.5358 157.461C35.567 157.287 38.5676 156.577 38.6489 156.71C39.4379 156.196 40.119 155.533 40.6538 154.758C40.0295 154.505 39.3726 154.341 38.7024 154.271Z" fill="white"/>
<path d="M36.5067 154.446C35.6877 154.711 34.9381 155.155 34.3125 155.746C34.3814 156.329 34.6669 156.865 35.1122 157.247C35.2291 157.348 35.356 157.437 35.4909 157.512C36.1242 157.556 36.7602 157.488 37.37 157.311C37.816 157.173 38.2413 156.976 38.6341 156.723C38.8656 156.358 38.9921 155.936 38.9998 155.504C39.0075 155.072 38.896 154.646 38.6776 154.273C37.9497 154.187 37.2119 154.245 36.5067 154.446Z" fill="#1B1C1E"/>
<path d="M23.9896 154.482H24.0175C24.0309 154.538 24.0687 154.609 24.1289 154.608C24.1898 154.706 24.2405 154.81 24.2804 154.918C24.3672 155.079 24.6145 154.936 24.5254 154.774C24.4675 154.663 24.8529 154.873 25.0222 154.938C25.5601 155.145 26.1059 155.328 26.6584 155.495C26.9157 155.573 27.1741 155.652 27.4381 155.718C27.6463 155.772 28.3291 155.989 28.3893 155.957C28.8011 156.329 29.1672 156.748 29.4797 157.207C28.744 157.505 27.9643 157.679 27.1718 157.724C27.1718 157.707 27.1641 157.689 27.1607 157.671C27.1306 157.498 24.1289 156.79 24.042 156.924C23.2531 156.411 22.572 155.748 22.0371 154.974C22.6617 154.719 23.319 154.554 23.9896 154.482Z" fill="white"/>
<path d="M26.1896 154.656C27.0091 154.919 27.7592 155.363 28.385 155.954C28.3411 156.32 28.2119 156.671 28.0075 156.978C27.8032 157.285 27.5296 157.539 27.2088 157.721C26.5752 157.765 25.9389 157.698 25.3286 157.522C24.8828 157.384 24.4576 157.186 24.0645 156.935C23.8326 156.57 23.7057 156.148 23.6977 155.716C23.6896 155.284 23.8007 154.858 24.0188 154.484C24.7466 154.397 25.4845 154.456 26.1896 154.656Z" fill="#1B1C1E"/>
<path d="M98.4729 199.517C88.238 199.517 79.9121 191.19 79.9121 180.955C79.9121 170.72 88.238 162.395 98.4729 162.395C108.708 162.395 117.035 170.72 117.035 180.955C117.035 191.19 108.708 199.517 98.4729 199.517ZM98.4729 162.886C88.5097 162.886 80.4033 170.992 80.4033 180.955C80.4033 190.919 88.5097 199.025 98.4729 199.025C108.436 199.025 116.544 190.919 116.544 180.954C116.544 170.99 108.442 162.886 98.4729 162.886Z" fill="#7910B1"/>
<mask id="mask1_1038_17783" style="mask-type:luminance" maskUnits="userSpaceOnUse" x="82" y="155" width="34" height="43">
<path d="M114.817 180.955C114.817 185.29 113.095 189.447 110.03 192.513C106.965 195.578 102.808 197.3 98.4732 197.3C94.1384 197.3 89.9812 195.578 86.916 192.513C83.8509 189.447 82.1289 185.29 82.1289 180.955C82.1289 171.933 89.4467 156.348 98.4732 156.348C104.756 156.348 108.684 154.47 111.265 156.39C118.003 161.403 114.817 174.429 114.817 180.955Z" fill="white"/>
</mask>
<g mask="url(#mask1_1038_17783)">
<path d="M118.07 201.754H76.4766V186.09L97.6482 181.873L118.07 186.09V201.754Z" fill="#7910B1"/>
<path d="M102.01 174.342H94.1152V185.971H102.01V174.342Z" fill="#E9A9FF"/>
<path d="M97.9247 187.886C101.675 187.886 104.715 186.667 104.715 185.163C104.715 183.659 101.675 182.439 97.9247 182.439C94.1747 182.439 91.1348 183.659 91.1348 185.163C91.1348 186.667 94.1747 187.886 97.9247 187.886Z" fill="#E9A9FF"/>
<path d="M104.418 171.414C104.503 167.363 101.777 164.021 98.3301 163.949C94.883 163.877 92.0197 167.102 91.9349 171.152C91.85 175.203 94.5757 178.545 98.0229 178.617C101.47 178.689 104.333 175.464 104.418 171.414Z" fill="#E9A9FF"/>
<path d="M92.9876 169.888C93.7406 171.073 93.5334 172.553 92.5254 173.194C91.5174 173.834 90.0883 173.393 89.3354 172.209C88.5824 171.025 88.7907 169.544 89.7987 168.903C90.8067 168.263 92.2347 168.704 92.9876 169.888Z" fill="#E9A9FF"/>
<path d="M106.868 172.569C107.67 171.417 107.524 169.929 106.544 169.247C105.563 168.565 104.118 168.946 103.317 170.099C102.515 171.251 102.66 172.739 103.641 173.421C104.622 174.103 106.067 173.722 106.868 172.569Z" fill="#E9A9FF"/>
<path d="M92.193 169.18C93.2355 167.509 94.8505 165.574 97.0938 165.282C100.02 164.896 101.66 167.594 104.677 167.387C110.447 166.991 107.749 163.989 107.045 164.045C107.768 163.088 108.288 158.089 104.622 160.511C100.9 162.971 98.955 161.084 96.3921 161.706C94.6957 162.115 91.9167 163.953 92.193 169.18Z" fill="#52006F"/>
<path d="M102.242 166.641C103.108 167.394 103.778 168.345 104.195 169.413C104.503 168.133 104.295 166.783 103.616 165.654L102.242 166.641Z" fill="#52006F"/>
</g>
<path d="M178.136 118.794C169.388 118.794 162.271 111.677 162.271 102.93C162.271 94.1829 169.388 87.0645 178.136 87.0645C186.884 87.0645 194 94.1818 194 102.93C194 111.678 186.883 118.794 178.136 118.794ZM178.136 87.5557C169.658 87.5557 162.765 94.4525 162.765 102.926C162.765 111.4 169.662 118.297 178.136 118.297C186.61 118.297 193.507 111.4 193.507 102.926C193.507 94.4525 186.612 87.5557 178.136 87.5557Z" fill="#7910B1"/>
<mask id="mask2_1038_17783" style="mask-type:luminance" maskUnits="userSpaceOnUse" x="164" y="77" width="29" height="40">
<path d="M192.073 102.931C192.04 106.606 190.557 110.119 187.947 112.706C185.337 115.293 181.81 116.745 178.135 116.745C174.46 116.745 170.934 115.293 168.323 112.706C165.713 110.119 164.23 106.606 164.197 102.931C164.197 95.2332 170.435 77.0723 178.136 77.0723C183.493 77.0723 186.842 80.3447 189.043 81.982C194.79 86.2569 192.073 97.3651 192.073 102.931Z" fill="white"/>
</mask>
<g mask="url(#mask2_1038_17783)">
<path d="M194.845 119.327H159.375V105.97L177.429 102.373L194.845 105.97V119.327Z" fill="#E9A9FF"/>
<path d="M181.149 94.2754H174.416V105.867H181.149V94.2754Z" fill="#7910B1"/>
<path d="M177.665 107.5C180.862 107.5 183.454 106.46 183.454 105.178C183.454 103.895 180.862 102.855 177.665 102.855C174.467 102.855 171.875 103.895 171.875 105.178C171.875 106.46 174.467 107.5 177.665 107.5Z" fill="#7910B1"/>
<path d="M183.208 91.7738C183.281 88.3199 180.956 85.47 178.017 85.4084C175.077 85.3469 172.635 88.0969 172.563 91.5508C172.49 95.0047 174.815 97.8546 177.755 97.9162C180.694 97.9778 183.136 95.2277 183.208 91.7738Z" fill="#7910B1"/>
<path d="M173.455 90.4804C174.097 91.4906 173.921 92.7526 173.061 93.2984C172.201 93.8441 170.983 93.4688 170.341 92.4585C169.7 91.4483 169.876 90.1863 170.735 89.6395C171.595 89.0926 172.814 89.4701 173.455 90.4804Z" fill="#7910B1"/>
<path d="M185.29 92.7626C185.973 91.7798 185.849 90.5116 185.013 89.9299C184.177 89.3482 182.945 89.6734 182.261 90.6561C181.578 91.6389 181.701 92.9071 182.538 93.4888C183.374 94.0704 184.606 93.7453 185.29 92.7626Z" fill="#7910B1"/>
<path d="M172.778 89.8691C173.669 88.4468 175.045 86.7939 176.953 86.5433C179.448 86.2091 180.851 88.5482 183.413 88.3388C184.666 88.2374 185.968 83.2385 184.209 83.3733C180.416 83.664 178.529 82.9634 176.349 83.4947C174.912 83.8545 172.542 85.4138 172.778 89.8691Z" fill="#E9A9FF"/>
<path d="M181.346 87.7087C181.822 88.1259 182.231 88.6144 182.559 89.1567C182.735 89.4496 182.886 89.757 183.011 90.0756C183.274 88.9841 183.097 87.8328 182.517 86.8711L181.346 87.7087Z" fill="#E9A9FF"/>
<path d="M178.712 85.3783C180.664 85.0616 181.989 83.2227 181.672 81.2712C181.355 79.3196 179.516 77.9944 177.565 78.3112C175.613 78.628 174.288 80.4668 174.605 82.4184C174.922 84.3699 176.76 85.6951 178.712 85.3783Z" fill="#E9A9FF"/>
</g>
<path d="M108.337 71.835C108.342 78.6014 107.013 85.3025 104.426 91.5548C101.839 97.8072 98.0451 103.488 93.2605 108.273C88.4758 113.057 82.7947 116.851 76.5423 119.438C70.2898 122.025 63.5887 123.353 56.8223 123.347H53.6668C40.0043 123.347 26.9014 117.92 17.2406 108.259C7.57974 98.5982 2.15234 85.4953 2.15234 71.8328C2.15234 58.1703 7.57974 45.0674 17.2406 35.4066C26.9014 25.7458 40.0043 20.3184 53.6668 20.3184H56.8223C85.2738 20.3206 108.337 43.3824 108.337 71.835Z" fill="white"/>
<path d="M8.68943 67.9355C5.17308 76.6835 -6.74152 101.152 5.17531 107.031C15.0338 111.89 25.4236 87.4475 29.5592 79.0448L8.68943 67.9355Z" fill="#E2A18D"/>
<path d="M56.1016 78.6964C65.2082 81.1379 94.4573 94.0193 98.8602 81.481C102.502 71.1124 74.6345 62.703 65.7963 59.6055C62.9549 66.9567 58.9418 71.3463 56.1016 78.6964Z" fill="#E2A18D"/>
<path d="M97.8123 83.2847C102.156 79.0009 94.6212 65.0358 93.7691 63.7738C87.9092 55.0971 75.6572 40.6931 71.1116 43.735C66.8279 46.6008 68.0319 58.3049 78.0174 71.0137C86.8923 82.3201 94.2202 86.8244 97.8123 83.2847Z" fill="#E2A18D"/>
<path d="M85.8203 55.7142C84.1685 57.2468 81.4496 57.0018 79.7488 55.1673L66.1602 40.1607L71.9676 34.7754L85.7334 49.6194C87.432 51.4538 87.4721 54.1827 85.8203 55.7142Z" fill="#470A68"/>
<path d="M104.71 21.1943C108.228 19.3561 109.643 15.116 107.87 11.7238C106.097 8.33158 101.809 7.07178 98.2911 8.90996C94.7735 10.7481 93.3589 14.9882 95.1315 18.3804C96.9042 21.7726 101.193 23.0324 104.71 21.1943Z" fill="#EFBC73"/>
<path d="M67.8379 25.4144L73.7746 36.7754L108.872 29.1635L94.1298 0.949219L67.8379 25.4144Z" fill="#7910B1"/>
<path d="M67.8441 25.4266L60.2695 29.3848L66.1906 40.7155L73.7651 36.7573L67.8441 25.4266Z" fill="#EFBC73"/>
<path d="M70.6653 33.8192L65.2773 36.6348L66.3204 38.6308L71.7084 35.8153L70.6653 33.8192Z" fill="#E0AA63"/>
<path d="M69.052 30.7352L63.6641 33.5508L64.7071 35.5468L70.0951 32.7313L69.052 30.7352Z" fill="#E0AA63"/>
<path d="M67.4426 27.6512L62.0547 30.4668L63.0978 32.4628L68.4857 29.6473L67.4426 27.6512Z" fill="#E0AA63"/>
<path d="M79.1868 38.1373C78.5185 37.469 77.1151 37.8478 75.9244 38.5149C73.9874 39.602 72.799 41.8631 73.7914 42.9513C74.4864 43.7132 76.7286 43.2621 78.4294 41.4454C79.5421 40.2558 79.8707 38.809 79.1868 38.1373Z" fill="#E2A18D"/>
<path d="M85.6509 45.5089C84.8501 45.0066 83.4367 45.5435 82.5467 46.5793C81.1912 48.1565 80.2144 50.5211 81.4173 51.3688C82.2605 51.9636 84.3522 51.0413 85.6231 48.9005C86.454 47.5016 86.464 46.0179 85.6509 45.5089Z" fill="#E2A18D"/>
<path d="M81.5659 40.7033C80.8219 40.0016 79.1689 40.2355 77.9638 41.1032C76.1293 42.4242 74.5109 44.6462 75.6092 45.7968C76.3766 46.6032 78.8515 46.131 80.7328 44.2029C81.958 42.9454 82.3211 41.4184 81.5659 40.7033Z" fill="#E2A18D"/>
<path d="M83.7954 42.9847C82.9734 42.3777 81.3606 42.8065 80.2679 43.8123C78.5972 45.3427 77.2606 47.7408 78.4858 48.7532C79.3445 49.4616 81.7437 48.692 83.3788 46.5601C84.4525 45.1645 84.6296 43.6018 83.7954 42.9847Z" fill="#E2A18D"/>
<path d="M70.8972 56.1548C69.6419 54.9162 68.9591 52.6062 68.8077 51.2818C68.3321 47.1272 70.3336 42.6285 71.874 42.6742C72.7016 42.6987 73.8332 43.4661 73.8789 44.9497C73.9413 46.8365 73.2607 47.673 73.3543 49.1054C73.4757 50.98 75.6711 51.577 76.1244 53.6309C76.9453 57.331 72.617 57.8489 70.8972 56.1548Z" fill="#E2A18D"/>
<path d="M76.2316 60.3154L73.662 86.7253C73.662 86.7253 71.6482 86.2285 66.852 83.1688L65.6446 122.598C62.7312 123.102 59.7798 123.354 56.8231 123.352H53.6677C46.6672 123.361 39.7388 121.939 33.3079 119.173C26.8771 116.407 21.0794 112.355 16.271 107.268L18.7559 86.233L2.44727 70.1549C2.44727 70.1549 17.2678 56.8079 37.0873 54.9456C57.7075 53.0098 76.2316 60.3154 76.2316 60.3154Z" fill="#411686"/>
<path d="M8.94467 87.4199C28.2695 84.0785 41.9139 81.3362 46.1621 80.6557C46.9058 80.5189 47.6654 80.4896 48.4176 80.5688C52.2224 80.992 53.2593 84.0829 57.0575 86.354C61.3658 88.9303 65.2508 87.9423 65.4569 89.2076C65.5994 90.0876 64.2394 90.8784 61.1063 91.335C63.5266 91.2582 66.8135 91.2972 66.8525 92.6349C66.8135 94.182 62.9474 94.5896 60.5961 94.7222C63.4419 94.5618 65.0035 95.3281 64.8387 96.0788C64.5803 97.2617 62.4016 97.8999 58.6324 97.9656C61.2477 98.6473 61.7801 99.202 61.4738 99.8313C60.9169 100.979 57.8127 100.974 55.0715 100.55C51.9874 100.073 49.7608 98.6328 48.3786 97.6905C35.0873 101.434 19.2208 105.726 8.60384 107.611C6.35502 108.009 9.03711 94.7244 8.94467 87.4199Z" fill="#E2A18D"/>
<path d="M9.16506 87.6244C9.10339 87.6249 9.0438 87.6022 8.99817 87.5607C8.95254 87.5192 8.92423 87.4621 8.91889 87.4006C8.91355 87.3392 8.93157 87.278 8.96935 87.2293C9.00713 87.1805 9.0619 87.1478 9.12273 87.1377C13.3876 86.3992 17.6279 85.6474 22.0877 84.8376C22.1499 84.8303 22.2125 84.8469 22.2628 84.8842C22.3132 84.9214 22.3475 84.9764 22.3587 85.038C22.3699 85.0996 22.3572 85.1632 22.3232 85.2158C22.2892 85.2683 22.2364 85.306 22.1757 85.321C17.7204 86.1308 13.4722 86.8804 9.20627 87.6211C9.19264 87.6233 9.17886 87.6244 9.16506 87.6244Z" fill="#363E44"/>
<path d="M53.0863 85.0798C57.917 83.9225 59.414 82.4812 59.2124 81.7216C58.8626 80.4441 54.3338 79.7446 47.0605 80.5465C48.631 81.9611 51.527 83.6675 53.0863 85.0798Z" fill="#E2A18D"/>
<path d="M54.6084 85.006C54.549 85.0055 54.4917 84.9838 54.4469 84.9448C53.9947 84.5472 53.5826 84.1529 53.1838 83.7708C52.354 82.9755 51.5699 82.2248 50.6554 81.6958C50.5991 81.6631 50.5581 81.6094 50.5414 81.5466C50.5247 81.4837 50.5337 81.4168 50.5663 81.3605C50.599 81.3042 50.6526 81.2632 50.7155 81.2465C50.7784 81.2298 50.8453 81.2388 50.9016 81.2714C51.8662 81.8283 52.6714 82.6002 53.5235 83.4166C53.9189 83.7942 54.3266 84.1852 54.771 84.575C54.8197 84.6181 54.8494 84.6787 54.8536 84.7436C54.8578 84.8085 54.8361 84.8724 54.7933 84.9214C54.7704 84.948 54.742 84.9694 54.7101 84.984C54.6782 84.9986 54.6435 85.0061 54.6084 85.006Z" fill="#363E44"/>
<path d="M61.0213 91.4633H61.009C59.4878 91.3919 58.0026 90.9764 56.6651 90.2481C56.6368 90.2327 56.6118 90.2118 56.5915 90.1867C56.5713 90.1617 56.5562 90.1328 56.5471 90.1019C56.538 90.071 56.5351 90.0386 56.5385 90.0065C56.5419 89.9745 56.5516 89.9434 56.5671 89.9151C56.5825 89.8868 56.6034 89.8618 56.6284 89.8416C56.6535 89.8213 56.6824 89.8062 56.7133 89.7971C56.7442 89.788 56.7766 89.7851 56.8087 89.7885C56.8407 89.7919 56.8718 89.8016 56.9001 89.8171C58.1735 90.511 59.5882 90.906 61.0368 90.9721C61.0992 90.9775 61.1572 91.0064 61.199 91.053C61.2407 91.0996 61.2632 91.1604 61.2618 91.2229C61.2604 91.2855 61.2352 91.3452 61.1913 91.3898C61.1475 91.4345 61.0882 91.4608 61.0257 91.4633H61.0213Z" fill="#363E44"/>
<path d="M60.8815 94.8149H60.8703C59.349 94.7439 57.8637 94.3284 56.5264 93.5997C56.4692 93.5685 56.4268 93.5159 56.4084 93.4535C56.39 93.391 56.3972 93.3238 56.4284 93.2666C56.4596 93.2095 56.5122 93.167 56.5746 93.1487C56.6371 93.1303 56.7043 93.1375 56.7614 93.1686C58.0318 93.8613 59.4428 94.2566 60.8881 94.3248C60.9531 94.3263 61.0149 94.3535 61.0598 94.4005C61.1047 94.4475 61.1291 94.5104 61.1276 94.5754C61.1261 94.6404 61.0989 94.7021 61.0519 94.747C61.0049 94.7919 60.942 94.8163 60.877 94.8149H60.8815Z" fill="#363E44"/>
<path d="M58.5653 98.1781H58.5542C57.0295 98.1083 55.5407 97.6927 54.2002 96.963C54.1431 96.9318 54.1006 96.8792 54.0823 96.8167C54.0639 96.7543 54.0711 96.6871 54.1022 96.6299C54.1334 96.5728 54.186 96.5303 54.2484 96.5119C54.3109 96.4936 54.3781 96.5007 54.4353 96.5319C55.7087 97.2258 57.1233 97.6208 58.572 97.6869C58.6344 97.6923 58.6923 97.7212 58.7341 97.7678C58.7759 97.8144 58.7984 97.8752 58.7969 97.9378C58.7955 98.0003 58.7703 98.06 58.7265 98.1047C58.6826 98.1493 58.6234 98.1756 58.5609 98.1781H58.5653Z" fill="#363E44"/>
<path d="M38.2404 63.058C37.5409 62.8672 36.8857 62.5405 36.3125 62.0965C35.7392 61.6525 35.259 61.1 34.8992 60.4704C34.5395 59.8408 34.3073 59.1466 34.2159 58.4272C34.1245 57.7079 34.1757 56.9776 34.3665 56.2781L37.4206 45.0864C37.6113 44.3867 37.9379 43.7315 38.3819 43.1582C38.8258 42.5848 39.3784 42.1045 40.008 41.7448C40.6376 41.385 41.3319 41.1529 42.0513 41.0615C42.7707 40.9702 43.501 41.0215 44.2005 41.2125C45.6124 41.5983 46.8135 42.5289 47.5396 43.7998C48.2658 45.0706 48.4578 46.5778 48.0733 47.9901L45.0203 59.1841C44.8295 59.8836 44.5028 60.5388 44.0588 61.112C43.6148 61.6853 43.0623 62.1655 42.4327 62.5253C41.8031 62.885 41.1089 63.1172 40.3896 63.2086C39.6702 63.3 38.94 63.2488 38.2404 63.058Z" fill="#E2A18D"/>
<path d="M36.3523 33.772C36.7232 33.537 40.3176 31.3338 43.8718 32.7562C46.5171 33.8143 47.9562 36.16 49.7751 40.4605C51.9181 45.5251 52.4917 48.8521 51.5705 50.5317C50.1159 53.1838 41.7154 53.1437 37.0451 50.1375C33.6736 47.9666 31.8703 43.8878 32.2412 39.8669C32.6121 35.8459 36.1151 33.9224 36.3523 33.772Z" fill="#E2A18D"/>
<path d="M48.5332 35.8223C48.5455 35.8569 48.5789 35.8725 48.5911 35.907C48.8959 36.3317 49.2389 36.7276 49.6158 37.0899C49.7851 37.2425 49.9656 37.2859 50.1416 37.4118C50.2697 37.5042 50.3933 37.5922 50.5236 37.678C50.8482 36.6429 50.9368 35.5484 50.7831 34.4746C49.9609 34.7905 49.1997 35.2465 48.5332 35.8223Z" fill="white"/>
<path d="M50.0788 38.6667C50.261 38.3591 50.4103 38.0332 50.5244 37.6943C50.3778 37.2399 50.1185 36.8301 49.7706 36.5031C49.4227 36.176 48.9977 35.9425 48.5351 35.8242C48.1104 36.194 47.7459 36.6276 47.4547 37.1096C46.4411 38.8215 46.6872 40.8821 46.7407 41.2419L46.8198 41.2719C47.1996 41.1283 49.082 40.353 50.0788 38.6667Z" fill="#1B1C1E"/>
<path d="M41.5018 43.2341C41.7658 43.781 42.0676 44.1453 42.5789 44.4237C43.3475 43.9669 44.0268 43.3744 44.5838 42.675C44.5838 42.675 42.8952 41.7984 41.0195 41.9566C41.0663 42.4021 41.3102 42.8465 41.5018 43.2341Z" fill="white"/>
<path d="M41.0148 41.957C40.8023 41.9758 40.5914 42.0085 40.3832 42.055C38.248 42.5362 36.8535 44.4164 36.8535 44.4164C36.8535 44.4164 38.9197 45.5168 41.0549 45.0356C41.5801 44.9123 42.0839 44.7111 42.5496 44.4386C42.5401 43.9253 42.3925 43.424 42.1224 42.9874C41.8524 42.5508 41.4698 42.1949 41.0148 41.957Z" fill="#1B1C1E"/>
<path d="M30.4263 36.2862C29.1733 36.7996 27.5126 38.966 27.6485 41.3218C27.9358 46.3184 30.384 49.0562 36.089 50.5276C35.4207 48.8702 35.7549 46.119 35.9576 44.6532C36.2149 42.8288 35.8106 41.3697 34.6455 40.0865C39.9551 37.9547 41.6626 36.9188 41.5356 36.4811C41.4042 36.0244 39.2634 36.0567 39.2634 36.0567C39.2634 36.0567 43.9861 35.6457 44.0395 34.973C44.0573 34.7636 43.8535 34.2289 41.6515 33.6798C46.1836 34.2289 46.4521 33.8937 46.5211 33.6575C46.7261 32.9614 44.6388 30.5611 41.5512 29.3337C39.8103 28.6409 37.4301 28.7344 35.2269 29.748C31.2985 31.5491 30.2526 34.983 30.4263 36.2862Z" fill="#84524D"/>
<path d="M37.3931 45.7615C38.7854 46.8442 39.1752 48.6775 38.2574 49.8548C37.3396 51.0321 35.4729 51.1079 34.0772 50.0252C32.6816 48.9426 32.2951 47.1092 33.2129 45.9319C34.1307 44.7546 35.9997 44.6822 37.3931 45.7615Z" fill="#E2A18D"/>
<path d="M35.1692 49.4052C35.1302 49.4048 35.092 49.3949 35.0578 49.3762C34.9484 49.3185 34.8444 49.251 34.747 49.1746C34.3673 48.8871 34.1017 48.4743 33.9974 48.0096C33.9462 47.7929 33.9437 47.5675 33.9899 47.3497C34.0361 47.1319 34.13 46.927 34.2648 46.7498C34.402 46.5737 34.5786 46.4321 34.7805 46.3366C34.8395 46.3084 34.9074 46.3048 34.9691 46.3266C35.0309 46.3485 35.0814 46.3939 35.1096 46.453C35.1378 46.5121 35.1414 46.5799 35.1196 46.6417C35.0977 46.7034 35.0523 46.7539 34.9932 46.7821C34.8598 46.8446 34.743 46.9378 34.6524 47.0539C34.5619 47.175 34.4994 47.3146 34.4694 47.4627C34.4393 47.6108 34.4425 47.7637 34.4786 47.9104C34.5586 48.2614 34.7602 48.5727 35.0478 48.7892C35.1234 48.848 35.2039 48.9002 35.2884 48.9452C35.3368 48.9705 35.3754 49.0112 35.398 49.061C35.4206 49.1108 35.426 49.1667 35.4132 49.2198C35.4004 49.2729 35.3701 49.3202 35.3274 49.3542C35.2846 49.3882 35.2316 49.407 35.177 49.4074L35.1692 49.4052Z" fill="#363E44"/>
<path d="M48.3862 43.9556H48.3561C48.3241 43.9519 48.2932 43.9418 48.265 43.9261C48.2369 43.9103 48.2122 43.8891 48.1923 43.8637C48.1724 43.8384 48.1578 43.8093 48.1492 43.7782C48.1406 43.7471 48.1383 43.7147 48.1423 43.6827C48.1713 43.4388 48.1423 43.2505 48.0387 43.1258C47.9351 43.001 47.8159 42.962 47.5687 42.8941C47.3343 42.8358 47.1074 42.7506 46.8926 42.6401C46.5531 42.4536 46.2584 42.1951 46.0294 41.8827C45.9904 41.8306 45.9737 41.7651 45.983 41.7007C45.9923 41.6362 46.0268 41.5781 46.0789 41.5391C46.1311 41.5001 46.1966 41.4835 46.261 41.4927C46.3254 41.502 46.3836 41.5366 46.4225 41.5887C46.6086 41.8438 46.8486 42.0549 47.1254 42.2069C47.3077 42.3008 47.5007 42.3726 47.7001 42.4207C47.973 42.4965 48.2314 42.5678 48.4285 42.8273C48.6068 43.0601 48.6747 43.3686 48.629 43.744C48.621 43.8026 48.5919 43.8564 48.5473 43.8953C48.5026 43.9342 48.4454 43.9556 48.3862 43.9556Z" fill="#363E44"/>
<path d="M45.4005 52.6938C41.7494 52.6938 39.6498 51.5711 39.5518 51.5176C39.5235 51.5022 39.4985 51.4814 39.4783 51.4563C39.458 51.4312 39.4429 51.4023 39.4338 51.3714C39.4247 51.3405 39.4218 51.3081 39.4252 51.276C39.4286 51.244 39.4383 51.2129 39.4538 51.1846C39.4692 51.1563 39.4901 51.1313 39.5152 51.1111C39.5402 51.0908 39.5691 51.0757 39.6 51.0666C39.6309 51.0575 39.6633 51.0546 39.6954 51.058C39.7274 51.0615 39.7585 51.0712 39.7868 51.0866C39.8135 51.1 42.4455 52.5 46.854 52.1425C46.9172 52.1404 46.9787 52.1627 47.0259 52.2048C47.0731 52.2469 47.1023 52.3055 47.1074 52.3684C47.1126 52.4314 47.0933 52.494 47.0536 52.5432C47.0139 52.5923 46.9568 52.6244 46.8941 52.6326C46.3718 52.6749 45.8739 52.6938 45.4005 52.6938Z" fill="#363E44"/>
<path d="M48.0744 47.3779C47.9866 47.7331 47.7627 48.0395 47.451 48.2311C47.1393 48.4227 46.7648 48.4841 46.4082 48.4022C46.0516 48.3202 45.7416 48.1013 45.5449 47.7928C45.3482 47.4843 45.2806 47.1109 45.3567 46.753C45.5293 46.0034 45.9659 46.8934 46.7155 47.066C47.4652 47.2386 48.2448 46.6283 48.0744 47.3779Z" fill="#363E44"/>
<path d="M34.9138 39.9279C36.5633 34.5047 40.7413 32.2236 41.8785 31.4205C41.7293 29.4357 40.8672 28.5134 40.5286 28.2004C38.5939 26.4105 34.3401 26.5364 30.8049 29.4513C31.139 29.331 32.9289 29.1862 33.3589 29.5125C31.55 29.527 30.4228 30.2922 29.8481 30.6742C27.215 32.4207 26.1045 36.2033 27.2105 40.3434C27.205 40.0683 27.3643 38.8018 27.9178 38.1313C27.7471 38.8683 27.6708 39.6239 27.6906 40.3801C27.7886 44.0134 30.1288 46.544 31.0054 47.3972C31.0733 46.4148 31.4097 42.4463 34.9138 39.9279Z" fill="#84524D"/>
<path d="M32.908 35.9982C32.8544 35.9983 32.8023 35.981 32.7596 35.9487C32.7168 35.9165 32.6858 35.8711 32.6713 35.8196C32.6568 35.7681 32.6595 35.7132 32.6791 35.6634C32.6987 35.6136 32.7341 35.5715 32.7799 35.5437C33.4991 35.1016 34.2535 34.7194 35.0354 34.4009C35.8319 34.0776 36.6537 33.8205 37.4925 33.6324C36.8947 33.2756 36.2182 33.0718 35.5229 33.039C34.8275 33.0061 34.1348 33.1453 33.5061 33.4442C33.4768 33.4583 33.445 33.4665 33.4125 33.4683C33.38 33.47 33.3475 33.4653 33.3168 33.4544C33.2862 33.4436 33.258 33.4267 33.2339 33.4049C33.2098 33.383 33.1902 33.3566 33.1764 33.3272C33.1625 33.2977 33.1547 33.2658 33.1532 33.2333C33.1518 33.2008 33.1568 33.1683 33.168 33.1378C33.1792 33.1072 33.1963 33.0792 33.2184 33.0553C33.2405 33.0314 33.2671 33.0122 33.2967 32.9986C34.094 32.6209 34.9811 32.4735 35.8577 32.5733C36.7344 32.6731 37.5657 33.016 38.2577 33.5633C38.295 33.5927 38.3231 33.6323 38.3383 33.6773C38.3536 33.7223 38.3554 33.7708 38.3436 33.8169C38.3318 33.8629 38.3069 33.9045 38.2718 33.9366C38.2368 33.9687 38.1932 33.99 38.1463 33.9977C36.3375 34.3336 34.6057 34.9988 33.0372 35.9603C32.9985 35.9847 32.9537 35.9979 32.908 35.9982Z" fill="#363E44"/>
<path d="M108.338 54.8638C108.279 54.8629 108.223 54.8409 108.179 54.8019C108.135 54.7628 108.106 54.7092 108.098 54.6509C108.09 54.5925 108.103 54.5333 108.135 54.4838C108.167 54.4344 108.216 54.3981 108.272 54.3815L111.113 53.5929C111.174 53.5801 111.238 53.5911 111.291 53.6236C111.344 53.6561 111.384 53.7077 111.4 53.768C111.417 53.8283 111.41 53.8926 111.381 53.948C111.352 54.0034 111.303 54.0457 111.244 54.0663L108.404 54.8549C108.382 54.8606 108.36 54.8636 108.338 54.8638ZM114.019 53.2866C113.959 53.2877 113.9 53.2668 113.855 53.2277C113.809 53.1886 113.779 53.1342 113.771 53.0747C113.763 53.0152 113.777 52.9548 113.811 52.905C113.844 52.8551 113.895 52.8193 113.953 52.8043L116.792 52.0157C116.824 52.0047 116.858 52.0002 116.891 52.0027C116.925 52.0051 116.957 52.0145 116.987 52.0301C117.017 52.0457 117.043 52.0673 117.065 52.0934C117.086 52.1196 117.101 52.1499 117.11 52.1823C117.119 52.2147 117.122 52.2487 117.117 52.282C117.112 52.3154 117.101 52.3474 117.083 52.3762C117.066 52.4049 117.043 52.4298 117.015 52.4492C116.988 52.4686 116.956 52.4822 116.924 52.4891L114.084 53.2777C114.063 53.2834 114.04 53.2864 114.018 53.2866H114.019ZM119.699 51.7094C119.64 51.7085 119.584 51.6866 119.54 51.6475C119.496 51.6084 119.467 51.5549 119.459 51.4965C119.451 51.4382 119.464 51.3789 119.496 51.3295C119.528 51.2801 119.577 51.2438 119.633 51.2271L122.474 50.4386C122.535 50.4258 122.599 50.4367 122.652 50.4692C122.706 50.5018 122.745 50.5534 122.761 50.6136C122.778 50.6739 122.771 50.7383 122.742 50.7937C122.713 50.8491 122.664 50.8913 122.605 50.9119L119.765 51.7005C119.741 51.7069 119.717 51.7099 119.692 51.7094H119.699ZM125.38 50.1323C125.321 50.1314 125.264 50.1094 125.22 50.0703C125.176 50.0313 125.147 49.9777 125.139 49.9194C125.132 49.861 125.145 49.8017 125.177 49.7523C125.209 49.7029 125.257 49.6666 125.314 49.65L128.153 48.8614C128.185 48.8503 128.219 48.8459 128.252 48.8483C128.286 48.8508 128.318 48.8601 128.348 48.8757C128.378 48.8913 128.404 48.9129 128.426 48.9391C128.447 48.9653 128.462 48.9955 128.471 49.028C128.48 49.0604 128.483 49.0943 128.478 49.1277C128.473 49.161 128.462 49.1931 128.444 49.2218C128.427 49.2506 128.404 49.2754 128.376 49.2949C128.349 49.3143 128.317 49.3279 128.285 49.3348L125.445 50.1233C125.422 50.1295 125.397 50.1325 125.373 50.1323H125.38Z" fill="#7910B1"/>
<path d="M111.644 110.714C111.611 110.714 111.578 110.707 111.547 110.694C111.516 110.681 111.489 110.661 111.466 110.637L109.436 108.5C109.398 108.451 109.379 108.391 109.383 108.329C109.388 108.268 109.415 108.21 109.46 108.168C109.505 108.126 109.564 108.102 109.626 108.102C109.688 108.101 109.747 108.124 109.793 108.165L111.822 110.303C111.855 110.338 111.877 110.382 111.885 110.429C111.893 110.476 111.888 110.524 111.869 110.568C111.85 110.612 111.818 110.65 111.779 110.676C111.739 110.703 111.692 110.717 111.644 110.717V110.714ZM107.586 106.439C107.553 106.439 107.52 106.432 107.489 106.419C107.459 106.406 107.431 106.387 107.408 106.362L105.379 104.226C105.343 104.177 105.327 104.118 105.333 104.058C105.338 103.998 105.366 103.942 105.409 103.901C105.453 103.86 105.51 103.837 105.57 103.835C105.63 103.833 105.689 103.853 105.735 103.892L107.763 106.029C107.797 106.064 107.819 106.107 107.827 106.155C107.836 106.202 107.831 106.251 107.812 106.295C107.793 106.339 107.761 106.376 107.721 106.403C107.681 106.429 107.634 106.443 107.586 106.443V106.439ZM103.529 102.164C103.495 102.164 103.462 102.158 103.432 102.145C103.401 102.132 103.373 102.112 103.35 102.088L101.321 99.951C101.294 99.9287 101.273 99.9009 101.257 99.8695C101.242 99.8382 101.234 99.8039 101.233 99.769C101.232 99.7342 101.238 99.6995 101.251 99.6673C101.265 99.6351 101.285 99.6061 101.31 99.5822C101.336 99.5583 101.366 99.5402 101.399 99.5289C101.432 99.5176 101.467 99.5134 101.502 99.5167C101.536 99.52 101.57 99.5306 101.6 99.5479C101.631 99.5651 101.657 99.5886 101.678 99.6168L103.706 101.754C103.739 101.789 103.761 101.833 103.77 101.88C103.778 101.927 103.773 101.976 103.754 102.02C103.735 102.064 103.704 102.102 103.664 102.128C103.624 102.154 103.577 102.169 103.529 102.169V102.164Z" fill="#7910B1"/>
<path d="M45.4634 144.799H45.4256C45.3611 144.789 45.3033 144.754 45.2647 144.702C45.2262 144.649 45.2099 144.583 45.2195 144.519L45.489 142.752C45.5024 142.691 45.5386 142.637 45.5902 142.602C45.6418 142.567 45.705 142.552 45.7669 142.562C45.8288 142.571 45.8847 142.604 45.9233 142.653C45.9619 142.702 45.9802 142.765 45.9747 142.827L45.7051 144.593C45.6961 144.651 45.6667 144.703 45.6224 144.741C45.5781 144.779 45.5217 144.8 45.4634 144.799ZM46.1763 140.121C46.164 140.123 46.1517 140.123 46.1395 140.121C46.0752 140.112 46.0174 140.077 45.9788 140.024C45.9402 139.972 45.9239 139.906 45.9335 139.842L46.379 136.928C46.382 136.895 46.3918 136.862 46.4079 136.832C46.4239 136.803 46.4459 136.777 46.4724 136.756C46.4988 136.736 46.5293 136.72 46.5618 136.712C46.5944 136.703 46.6283 136.702 46.6615 136.707C46.6948 136.712 46.7266 136.724 46.7551 136.742C46.7836 136.759 46.8081 136.783 46.8271 136.811C46.8462 136.839 46.8593 136.87 46.8658 136.903C46.8722 136.936 46.8718 136.97 46.8646 137.003L46.4191 139.915C46.4092 139.972 46.3799 140.023 46.3361 140.06C46.2924 140.098 46.237 140.118 46.1796 140.119L46.1763 140.121ZM47.0673 134.295H47.0295C46.9976 134.29 46.9671 134.279 46.9396 134.262C46.9121 134.246 46.8881 134.224 46.8691 134.198C46.85 134.172 46.8363 134.142 46.8287 134.111C46.821 134.08 46.8196 134.047 46.8245 134.015L47.27 131.102C47.2805 131.037 47.3157 130.98 47.3682 130.941C47.4207 130.903 47.4863 130.886 47.5507 130.896C47.5826 130.9 47.6131 130.912 47.6406 130.928C47.6681 130.945 47.6921 130.967 47.7111 130.993C47.7302 131.019 47.7439 131.048 47.7515 131.08C47.7592 131.111 47.7606 131.143 47.7557 131.175L47.3102 134.089C47.3003 134.146 47.2709 134.197 47.2272 134.234C47.1835 134.271 47.1281 134.292 47.0707 134.293L47.0673 134.295ZM47.9584 128.469H47.9205C47.8561 128.458 47.7983 128.423 47.7597 128.371C47.7211 128.318 47.7049 128.252 47.7145 128.188L48.16 125.275C48.1697 125.211 48.2047 125.153 48.2571 125.114C48.3095 125.076 48.3752 125.059 48.4396 125.069C48.504 125.079 48.5619 125.114 48.6005 125.166C48.6391 125.219 48.6554 125.284 48.6456 125.349L48.2001 128.263C48.1905 128.32 48.1603 128.373 48.1151 128.41C48.0698 128.448 48.0126 128.468 47.9539 128.466L47.9584 128.469Z" fill="#7910B1"/>
<path d="M89.7982 159.483C89.7454 159.483 89.6941 159.466 89.6518 159.434C89.6095 159.403 89.5784 159.358 89.5631 159.308L88.7022 156.49C88.6873 156.429 88.6963 156.364 88.7274 156.31C88.7584 156.255 88.8092 156.215 88.8693 156.196C88.9294 156.178 88.9943 156.183 89.0506 156.211C89.1069 156.239 89.1504 156.287 89.1722 156.346L90.0332 159.165C90.0519 159.228 90.0452 159.295 90.0145 159.352C89.9839 159.41 89.9317 159.453 89.8694 159.472C89.8463 159.479 89.8223 159.482 89.7982 159.483ZM88.0762 153.846C88.0236 153.846 87.9724 153.829 87.9301 153.798C87.8878 153.766 87.8566 153.722 87.8412 153.672L86.9802 150.853C86.9613 150.791 86.9679 150.723 86.9986 150.666C87.0293 150.608 87.0816 150.566 87.1439 150.547C87.2062 150.528 87.2735 150.534 87.331 150.565C87.3884 150.596 87.4313 150.648 87.4502 150.71L88.3112 153.528C88.3207 153.559 88.324 153.591 88.3209 153.624C88.3178 153.656 88.3085 153.687 88.2934 153.715C88.2783 153.744 88.2577 153.769 88.2329 153.789C88.208 153.81 88.1794 153.825 88.1486 153.835C88.1249 153.841 88.1005 153.843 88.0762 153.841V153.846ZM86.3542 148.209C86.3016 148.209 86.2504 148.192 86.2081 148.16C86.1658 148.129 86.1347 148.085 86.1192 148.035L85.2582 145.217C85.2466 145.186 85.2415 145.152 85.2433 145.119C85.2451 145.085 85.2537 145.052 85.2685 145.022C85.2834 144.992 85.3043 144.966 85.3298 144.944C85.3554 144.922 85.3851 144.906 85.4171 144.896C85.4492 144.886 85.4829 144.883 85.5162 144.887C85.5495 144.891 85.5817 144.901 85.6109 144.918C85.64 144.934 85.6654 144.957 85.6856 144.983C85.7058 145.01 85.7203 145.041 85.7282 145.073L86.5892 147.891C86.5988 147.922 86.6023 147.954 86.5993 147.987C86.5963 148.019 86.587 148.05 86.5718 148.078C86.5567 148.107 86.5361 148.132 86.5112 148.152C86.4862 148.173 86.4575 148.188 86.4266 148.198C86.403 148.203 86.3785 148.206 86.3542 148.204V148.209ZM84.6322 142.572C84.5796 142.572 84.5284 142.555 84.4862 142.523C84.4439 142.492 84.4127 142.448 84.3972 142.398L83.5362 139.58C83.5213 139.519 83.5303 139.454 83.5614 139.4C83.5925 139.345 83.6433 139.304 83.7034 139.286C83.7635 139.268 83.8284 139.273 83.8847 139.301C83.941 139.329 83.9845 139.377 84.0063 139.436L84.8672 142.254C84.8864 142.316 84.88 142.384 84.8495 142.442C84.819 142.499 84.7669 142.542 84.7046 142.562C84.6808 142.567 84.6565 142.568 84.6322 142.567V142.572ZM82.9103 136.936C82.8577 136.936 82.8065 136.919 82.7642 136.887C82.7219 136.856 82.6907 136.812 82.6752 136.762L81.8143 133.943C81.7994 133.882 81.8084 133.817 81.8394 133.763C81.8705 133.708 81.9213 133.667 81.9814 133.649C82.0415 133.631 82.1064 133.636 82.1627 133.664C82.219 133.692 82.2625 133.74 82.2843 133.799L83.1453 136.618C83.1547 136.649 83.158 136.681 83.155 136.713C83.1519 136.745 83.1426 136.777 83.1275 136.805C83.1124 136.834 83.0918 136.859 83.0669 136.879C83.0421 136.9 83.0135 136.915 82.9827 136.925C82.959 136.93 82.9346 136.933 82.9103 136.931V136.936ZM81.1883 131.299C81.1357 131.299 81.0845 131.282 81.0422 131.25C80.9999 131.219 80.9687 131.175 80.9533 131.125L80.0923 128.307C80.0807 128.275 80.0756 128.242 80.0774 128.208C80.0792 128.175 80.0877 128.142 80.1026 128.112C80.1175 128.082 80.1384 128.056 80.1639 128.034C80.1895 128.012 80.2192 127.996 80.2512 127.986C80.2833 127.976 80.317 127.973 80.3503 127.977C80.3836 127.981 80.4158 127.991 80.4449 128.008C80.4741 128.024 80.4995 128.047 80.5197 128.073C80.5399 128.1 80.5544 128.131 80.5623 128.163L81.4233 130.981C81.4329 131.012 81.4363 131.044 81.4333 131.076C81.4304 131.109 81.421 131.14 81.4059 131.168C81.3908 131.197 81.3702 131.222 81.3452 131.242C81.3203 131.263 81.2916 131.278 81.2607 131.287C81.237 131.293 81.2126 131.296 81.1883 131.294V131.299ZM79.4663 125.662C79.4138 125.661 79.3626 125.644 79.3204 125.613C79.2781 125.582 79.2469 125.538 79.2313 125.488L78.3703 122.67C78.3554 122.609 78.3644 122.544 78.3955 122.49C78.4266 122.435 78.4774 122.394 78.5375 122.376C78.5976 122.358 78.6624 122.363 78.7187 122.391C78.7751 122.419 78.8186 122.467 78.8403 122.526L79.7013 125.344C79.7205 125.406 79.7141 125.474 79.6836 125.531C79.6531 125.589 79.601 125.632 79.5387 125.651C79.5149 125.657 79.4906 125.658 79.4663 125.657V125.662Z" fill="#7910B1"/>
<path d="M164.2 91.4618C164.184 91.4635 164.168 91.4635 164.152 91.4618L161.277 90.9049C161.244 90.9004 161.212 90.8891 161.183 90.8717C161.154 90.8544 161.13 90.8314 161.11 90.8041C161.091 90.7769 161.077 90.7459 161.07 90.7131C161.063 90.6804 161.062 90.6465 161.069 90.6136C161.075 90.5807 161.088 90.5495 161.107 90.5218C161.126 90.4942 161.151 90.4707 161.179 90.4528C161.207 90.4349 161.239 90.423 161.272 90.4178C161.305 90.4126 161.339 90.4143 161.372 90.4226L164.245 90.9795C164.306 90.9896 164.362 91.0226 164.399 91.0717C164.437 91.1208 164.455 91.1824 164.449 91.2442C164.443 91.3059 164.415 91.3632 164.368 91.4044C164.322 91.4456 164.262 91.4677 164.2 91.4663V91.4618ZM158.432 90.3391C158.416 90.3407 158.4 90.3407 158.384 90.3391L155.488 89.7822C155.427 89.7665 155.375 89.7282 155.341 89.6751C155.308 89.6219 155.296 89.558 155.308 89.4963C155.32 89.4347 155.355 89.38 155.407 89.3435C155.458 89.3069 155.521 89.2914 155.583 89.2999L158.479 89.8568C158.538 89.8695 158.59 89.9034 158.626 89.9521C158.661 90.0008 158.678 90.0609 158.672 90.121C158.666 90.181 158.639 90.2369 158.595 90.2779C158.55 90.3189 158.493 90.3423 158.432 90.3435V90.3391ZM152.647 89.213C152.631 89.2146 152.615 89.2146 152.599 89.213L149.703 88.6561C149.67 88.6515 149.638 88.6403 149.609 88.6229C149.581 88.6056 149.556 88.5826 149.536 88.5553C149.517 88.528 149.503 88.4971 149.496 88.4643C149.489 88.4315 149.489 88.3977 149.495 88.3648C149.501 88.3319 149.515 88.3007 149.534 88.273C149.552 88.2454 149.577 88.2219 149.605 88.204C149.634 88.1861 149.665 88.1742 149.698 88.169C149.732 88.1638 149.765 88.1655 149.798 88.1738L152.694 88.7307C152.753 88.7434 152.805 88.7773 152.841 88.826C152.876 88.8747 152.893 88.9348 152.887 88.9949C152.881 89.055 152.854 89.1108 152.809 89.1518C152.765 89.1929 152.707 89.2162 152.647 89.2175V89.213ZM146.862 88.0869C146.846 88.0885 146.83 88.0885 146.814 88.0869L143.918 87.5233C143.886 87.5172 143.856 87.5049 143.829 87.4871C143.803 87.4693 143.779 87.4465 143.762 87.4198C143.744 87.3931 143.731 87.3631 143.725 87.3316C143.718 87.3 143.718 87.2675 143.724 87.236C143.73 87.2044 143.743 87.1743 143.76 87.1475C143.778 87.1206 143.801 87.0975 143.828 87.0795C143.854 87.0615 143.884 87.049 143.916 87.0426C143.947 87.0361 143.98 87.036 144.011 87.0422L146.907 87.6046C146.969 87.6147 147.024 87.6477 147.062 87.6968C147.099 87.7459 147.117 87.8075 147.111 87.8693C147.106 87.931 147.077 87.9883 147.03 88.0295C146.984 88.0707 146.924 88.0928 146.862 88.0914V88.0869ZM141.07 86.9608C141.054 86.9625 141.039 86.9625 141.023 86.9608L138.127 86.3972C138.063 86.3848 138.007 86.3476 137.971 86.2937C137.934 86.2398 137.921 86.1737 137.933 86.1099C137.946 86.0461 137.983 85.9898 138.037 85.9535C138.091 85.9171 138.157 85.9037 138.221 85.9161L141.117 86.473C141.178 86.4831 141.233 86.5161 141.271 86.5653C141.309 86.6146 141.327 86.6764 141.321 86.7382C141.315 86.8001 141.286 86.8574 141.239 86.8985C141.192 86.9396 141.132 86.9615 141.07 86.9597V86.9608ZM135.287 85.8348C135.271 85.8364 135.256 85.8364 135.24 85.8348L132.344 85.2712C132.284 85.2553 132.231 85.217 132.198 85.1641C132.165 85.1112 132.153 85.0476 132.165 84.9862C132.177 84.9248 132.212 84.8702 132.262 84.8336C132.313 84.797 132.376 84.781 132.438 84.7889L135.334 85.3525C135.395 85.3625 135.45 85.3955 135.488 85.4448C135.526 85.494 135.544 85.5559 135.538 85.6177C135.532 85.6796 135.503 85.7369 135.456 85.778C135.409 85.8191 135.349 85.841 135.287 85.8392V85.8348ZM129.502 84.7087C129.486 84.7098 129.47 84.7098 129.455 84.7087L126.559 84.1451C126.498 84.1292 126.446 84.091 126.413 84.038C126.38 83.9851 126.368 83.9215 126.38 83.8601C126.392 83.7987 126.426 83.7442 126.477 83.7075C126.528 83.6709 126.59 83.6549 126.652 83.6628L129.548 84.2264C129.607 84.2391 129.66 84.273 129.695 84.3217C129.731 84.3704 129.747 84.4305 129.742 84.4906C129.736 84.5507 129.708 84.6065 129.664 84.6475C129.62 84.6885 129.562 84.7119 129.502 84.7131V84.7087ZM123.716 83.5826C123.701 83.5837 123.685 83.5837 123.67 83.5826L120.774 83.019C120.713 83.0032 120.661 82.9649 120.628 82.912C120.594 82.859 120.583 82.7954 120.595 82.734C120.606 82.6726 120.641 82.6181 120.692 82.5814C120.743 82.5448 120.805 82.5288 120.867 82.5367L123.763 83.1003C123.822 83.113 123.874 83.147 123.91 83.1957C123.946 83.2444 123.962 83.3045 123.956 83.3645C123.951 83.4246 123.923 83.4804 123.879 83.5214C123.835 83.5625 123.777 83.5858 123.716 83.5871V83.5826ZM117.931 82.4565C117.916 82.4582 117.9 82.4582 117.884 82.4565L114.989 81.8941C114.928 81.8782 114.876 81.8399 114.843 81.787C114.809 81.734 114.797 81.6704 114.809 81.6091C114.821 81.5477 114.856 81.4931 114.907 81.4565C114.957 81.4198 115.02 81.4038 115.082 81.4118L117.978 81.9754C118.037 81.9881 118.089 82.022 118.125 82.0707C118.161 82.1194 118.177 82.1795 118.171 82.2396C118.165 82.2996 118.138 82.3555 118.094 82.3965C118.049 82.4375 117.992 82.4609 117.931 82.4621V82.4565ZM112.146 81.3304C112.13 81.3321 112.115 81.3321 112.099 81.3304L109.203 80.7735C109.17 80.7693 109.138 80.7582 109.109 80.741C109.08 80.7238 109.055 80.7009 109.035 80.6736C109.015 80.6463 109.001 80.6153 108.994 80.5824C108.987 80.5495 108.986 80.5155 108.993 80.4825C108.999 80.4494 109.012 80.418 109.031 80.3903C109.05 80.3625 109.075 80.3389 109.103 80.321C109.132 80.3031 109.164 80.2912 109.197 80.2861C109.23 80.2809 109.264 80.2827 109.297 80.2913L112.193 80.8548C112.252 80.8675 112.304 80.9015 112.34 80.9502C112.375 80.9989 112.392 81.059 112.386 81.119C112.38 81.1791 112.353 81.235 112.308 81.276C112.264 81.317 112.206 81.3403 112.146 81.3416V81.3304Z" fill="#7910B1"/>
</svg>
