<svg width="14" height="18" viewBox="0 0 14 18" fill="none" xmlns="http://www.w3.org/2000/svg">
<path d="M8.71757 10.5863C8.71757 9.82232 8.09823 9.20298 7.33424 9.20298C6.57024 9.20298 5.9509 9.82232 5.9509 10.5863C5.94976 10.9102 6.06511 11.2237 6.2759 11.4697C6.4883 11.691 6.56193 12.0111 6.46757 12.303L6.29257 12.8197C6.22489 13.052 6.26963 13.3026 6.41352 13.4972C6.55741 13.6918 6.78393 13.808 7.0259 13.8113H7.64257C7.89256 13.8112 8.12717 13.6906 8.27263 13.4873C8.41809 13.2839 8.45655 13.0229 8.3759 12.7863L8.16757 12.2697C8.07321 11.9778 8.14684 11.6576 8.35924 11.4363C8.57478 11.2038 8.70163 10.9029 8.71757 10.5863Z" fill="#7910B1"/>
<path fill-rule="evenodd" clip-rule="evenodd" d="M11.2926 5.76965V3.16965C11.293 2.49042 11.0171 1.84024 10.5282 1.36867C10.0394 0.897102 9.37968 0.644747 8.7009 0.669652H5.96757C5.28879 0.644747 4.6291 0.897102 4.14024 1.36867C3.65139 1.84024 3.37545 2.49042 3.3759 3.16965V5.76965C1.64967 6.37743 0.599836 8.12715 0.875904 9.93632L1.66757 14.7447C2.05804 16.66 3.7633 18.0214 5.71757 17.978H8.9509C10.9191 18.0274 12.6366 16.6513 13.0176 14.7197L13.8092 9.91132C14.0703 8.10624 13.015 6.36946 11.2926 5.76965ZM4.6259 3.16965C4.65745 2.45935 5.25712 1.9081 5.96757 1.93632H8.7009C9.41135 1.9081 10.011 2.45935 10.0426 3.16965V5.47799H4.6259V3.16965ZM11.5009 14.4697L12.3342 9.64465C12.4169 9.02044 12.2185 8.3917 11.7926 7.92799C11.2746 7.34053 10.5257 7.00874 9.74257 7.01965H4.9259C4.1454 7.00452 3.397 7.33005 2.8759 7.91132C2.46009 8.38617 2.27688 9.02129 2.3759 9.64465L3.16757 14.4697C3.42595 15.6583 4.50232 16.4884 5.71757 16.4363H8.9509C10.1662 16.4884 11.2425 15.6583 11.5009 14.4697Z" fill="#7910B1"/>
</svg>
