<svg width="21" height="20" viewBox="0 0 21 20" fill="none" xmlns="http://www.w3.org/2000/svg">
<path d="M12.6608 14.6073C12.6005 16.1238 11.3367 17.4115 9.64361 17.3701C9.24972 17.3605 8.76289 17.2231 7.78923 16.9485C5.44595 16.2876 3.41176 15.1767 2.9237 12.6883C2.83398 12.2308 2.83398 11.7161 2.83398 10.6866V9.3153C2.83398 8.28587 2.83398 7.77113 2.9237 7.31371C3.41176 4.82522 5.44595 3.7144 7.78923 3.05343C8.76289 2.77879 9.24972 2.64147 9.64361 2.63183C11.3367 2.59041 12.6005 3.8781 12.6608 5.39465" stroke="#EE1C25" stroke-width="1.22835" stroke-linecap="round"/>
<path d="M8.56641 10.0004H17.5743M8.56641 10.0004C8.56641 9.42698 10.1995 8.35564 10.6137 7.95312M8.56641 10.0004C8.56641 10.5738 10.1995 11.6451 10.6137 12.0476" stroke="#EE1C25" stroke-width="1.22835" stroke-linecap="round" stroke-linejoin="round"/>
</svg>
