<svg width="21" height="22" viewBox="0 0 21 22" fill="none" xmlns="http://www.w3.org/2000/svg">
<path d="M11.428 8.60496H9.68935V6.86626H11.428M11.428 15.5597H9.68935V10.3437H11.428M10.5587 2.51953C9.41706 2.51953 8.2866 2.74439 7.23186 3.18128C6.17712 3.61817 5.21876 4.25853 4.41149 5.06579C2.78115 6.69613 1.86523 8.90735 1.86523 11.213C1.86523 13.5186 2.78115 15.7299 4.41149 17.3602C5.21876 18.1675 6.17712 18.8078 7.23186 19.2447C8.2866 19.6816 9.41706 19.9065 10.5587 19.9065C12.8644 19.9065 15.0756 18.9905 16.7059 17.3602C18.3363 15.7299 19.2522 13.5186 19.2522 11.213C19.2522 10.0714 19.0273 8.94089 18.5904 7.88615C18.1535 6.83141 17.5132 5.87305 16.7059 5.06579C15.8986 4.25853 14.9403 3.61817 13.8855 3.18128C12.8308 2.74439 11.7003 2.51953 10.5587 2.51953Z" fill="#7910B1"/>
</svg>
