<svg width="17" height="17" viewBox="0 0 17 17" fill="none" xmlns="http://www.w3.org/2000/svg">
<path d="M1.36523 12.8351C1.36523 11.7839 1.36523 11.2583 1.60185 10.8722C1.73424 10.6561 1.9159 10.4745 2.13195 10.3421C2.51806 10.1055 3.04367 10.1055 4.09489 10.1055C5.14611 10.1055 5.67172 10.1055 6.05784 10.3421C6.27389 10.4745 6.45554 10.6561 6.58794 10.8722C6.82455 11.2583 6.82455 11.7839 6.82455 12.8351C6.82455 13.8863 6.82455 14.412 6.58794 14.7981C6.45554 15.0141 6.27389 15.1958 6.05784 15.3282C5.67172 15.5648 5.14611 15.5648 4.09489 15.5648C3.04367 15.5648 2.51806 15.5648 2.13195 15.3282C1.9159 15.1958 1.73424 15.0141 1.60185 14.7981C1.36523 14.412 1.36523 13.8863 1.36523 12.8351Z" stroke="white" stroke-width="1.22835"/>
<path d="M9.55469 12.8351C9.55469 11.7839 9.55469 11.2583 9.79128 10.8722C9.92367 10.6561 10.1053 10.4745 10.3214 10.3421C10.7075 10.1055 11.2332 10.1055 12.2843 10.1055C13.3355 10.1055 13.8612 10.1055 14.2473 10.3421C14.4634 10.4745 14.645 10.6561 14.7774 10.8722C15.014 11.2583 15.014 11.7839 15.014 12.8351C15.014 13.8863 15.014 14.412 14.7774 14.7981C14.645 15.0141 14.4634 15.1958 14.2473 15.3282C13.8612 15.5648 13.3355 15.5648 12.2843 15.5648C11.2332 15.5648 10.7075 15.5648 10.3214 15.3282C10.1053 15.1958 9.92367 15.0141 9.79128 14.7981C9.55469 14.412 9.55469 13.8863 9.55469 12.8351Z" stroke="white" stroke-width="1.22835"/>
<path d="M1.36523 4.64567C1.36523 3.59446 1.36523 3.06885 1.60185 2.68273C1.73424 2.46668 1.9159 2.28502 2.13195 2.15263C2.51806 1.91602 3.04367 1.91602 4.09489 1.91602C5.14611 1.91602 5.67172 1.91602 6.05784 2.15263C6.27389 2.28502 6.45554 2.46668 6.58794 2.68273C6.82455 3.06885 6.82455 3.59446 6.82455 4.64567C6.82455 5.69689 6.82455 6.2225 6.58794 6.60862C6.45554 6.82467 6.27389 7.00632 6.05784 7.13872C5.67172 7.37533 5.14611 7.37533 4.09489 7.37533C3.04367 7.37533 2.51806 7.37533 2.13195 7.13872C1.9159 7.00632 1.73424 6.82467 1.60185 6.60862C1.36523 6.2225 1.36523 5.69689 1.36523 4.64567Z" stroke="white" stroke-width="1.22835"/>
<path d="M9.55469 4.64567C9.55469 3.59446 9.55469 3.06885 9.79128 2.68273C9.92367 2.46668 10.1053 2.28502 10.3214 2.15263C10.7075 1.91602 11.2332 1.91602 12.2843 1.91602C13.3355 1.91602 13.8612 1.91602 14.2473 2.15263C14.4634 2.28502 14.645 2.46668 14.7774 2.68273C15.014 3.06885 15.014 3.59446 15.014 4.64567C15.014 5.69689 15.014 6.2225 14.7774 6.60862C14.645 6.82467 14.4634 7.00632 14.2473 7.13872C13.8612 7.37533 13.3355 7.37533 12.2843 7.37533C11.2332 7.37533 10.7075 7.37533 10.3214 7.13872C10.1053 7.00632 9.92367 6.82467 9.79128 6.60862C9.55469 6.2225 9.55469 5.69689 9.55469 4.64567Z" stroke="white" stroke-width="1.22835"/>
</svg>
