<svg width="22" height="22" viewBox="0 0 22 22" fill="none" xmlns="http://www.w3.org/2000/svg">
<path d="M9.61081 18.9145H14.5493C17.089 18.9145 18.3588 18.9145 19.1478 18.1255C19.9368 17.3365 19.9368 16.0666 19.9368 13.527V11.7311C19.9368 9.19145 19.9368 7.92158 19.1478 7.1326C18.3588 6.34362 17.089 6.34362 14.5493 6.34362H9.16185M1.97852 13.527V9.93529C1.97852 6.54903 1.97852 4.85591 3.03049 3.80393C4.08247 2.75195 5.77559 2.75195 9.16185 2.75195H12.7535C13.5886 2.75195 14.0061 2.75195 14.3487 2.84374C15.2782 3.09282 16.0043 3.81892 16.2534 4.74851C16.3452 5.09106 16.3452 5.50858 16.3452 6.34362" stroke="white" stroke-width="1.34688" stroke-linecap="round"/>
<path d="M14.5508 12.1809C14.5508 12.9247 15.1538 13.5277 15.8977 13.5277C16.6415 13.5277 17.2445 12.9247 17.2445 12.1809C17.2445 11.437 16.6415 10.834 15.8977 10.834C15.1538 10.834 14.5508 11.437 14.5508 12.1809Z" stroke="white" stroke-width="1.34688"/>
<path d="M5.57031 19.2129V13.2268" stroke="white" stroke-width="1.34688" stroke-linecap="round" stroke-linejoin="round"/>
<path d="M7.81575 17.3422C7.81575 17.3422 6.1625 19.2129 5.57095 19.2129C4.97941 19.2129 3.32617 17.3422 3.32617 17.3422" stroke="white" stroke-width="1.34688" stroke-linecap="round" stroke-linejoin="round"/>
</svg>
