<svg width="22" height="22" viewBox="0 0 22 22" fill="none" xmlns="http://www.w3.org/2000/svg">
<path d="M9.61081 18.9164H14.5493C17.089 18.9164 18.3588 18.9164 19.1478 18.1274C19.9368 17.3384 19.9368 16.0686 19.9368 13.5289V11.7331C19.9368 9.19341 19.9368 7.92354 19.1478 7.13455C18.3588 6.34557 17.089 6.34557 14.5493 6.34557H9.16185M1.97852 13.5289V9.93724C1.97852 6.55098 1.97852 4.85786 3.03049 3.80588C4.08247 2.75391 5.77559 2.75391 9.16185 2.75391H12.7535C13.5886 2.75391 14.0061 2.75391 14.3487 2.84569C15.2782 3.09477 16.0043 3.82087 16.2534 4.75046C16.3452 5.09301 16.3452 5.51054 16.3452 6.34557" stroke="white" stroke-width="1.34688" stroke-linecap="round"/>
<path d="M14.5508 12.1828C14.5508 12.9266 15.1538 13.5297 15.8977 13.5297C16.6415 13.5297 17.2445 12.9266 17.2445 12.1828C17.2445 11.439 16.6415 10.8359 15.8977 10.8359C15.1538 10.8359 14.5508 11.439 14.5508 12.1828Z" stroke="white" stroke-width="1.34688"/>
<path d="M5.57031 13.2285V19.2146" stroke="white" stroke-width="1.34688" stroke-linecap="round" stroke-linejoin="round"/>
<path d="M7.81575 15.0992C7.81575 15.0992 6.1625 13.2285 5.57095 13.2285C4.97941 13.2285 3.32617 15.0992 3.32617 15.0992" stroke="white" stroke-width="1.34688" stroke-linecap="round" stroke-linejoin="round"/>
</svg>
