<svg width="32" height="32" viewBox="0 0 32 32" fill="none" xmlns="http://www.w3.org/2000/svg">
<path d="M16 32C24.8366 32 32 24.8366 32 16C32 7.16344 24.8366 0 16 0C7.16344 0 0 7.16344 0 16C0 24.8366 7.16344 32 16 32Z" fill="#0FA301"/>
<path d="M11 14H12.3333V10H13.6667L15.9467 14H19V10H20.3333V14H21.6667V15.3333H20.3333V16.6667H21.6667V18H20.3333V22H19L16.7133 18H13.6667V22H12.3333V18H11V16.6667H12.3333V15.3333H11V14ZM13.6667 14H14.42L13.6667 12.6867V14ZM13.6667 15.3333V16.6667H15.9467L15.1867 15.3333H13.6667ZM19 19.3333V18H18.2333L19 19.3333ZM16.7067 15.3333L17.4733 16.6667H19V15.3333H16.7067Z" fill="white"/>
</svg>
