<svg width="16" height="19" viewBox="0 0 16 19" fill="none" xmlns="http://www.w3.org/2000/svg">
<path d="M12.9586 7.00485V5.95313C12.9586 3.09787 10.6928 0.783203 7.89775 0.783203C5.1027 0.783203 2.83691 3.09787 2.83691 5.95313V7.00485C1.52111 7.59149 0.669867 8.91792 0.667969 10.3845V14.8159C0.670341 16.8543 2.28739 18.5063 4.28284 18.5087H11.5126C13.5081 18.5063 15.1251 16.8543 15.1275 14.8159V10.3845C15.1257 8.91792 14.2744 7.59149 12.9586 7.00485ZM8.62072 13.3388C8.62072 13.7467 8.29704 14.0773 7.89775 14.0773C7.49846 14.0773 7.17478 13.7467 7.17478 13.3388V11.8616C7.17478 11.4537 7.49846 11.1231 7.89775 11.1231C8.29704 11.1231 8.62072 11.4537 8.62072 11.8616V13.3388ZM11.5127 6.69171H4.28284V5.95316C4.28284 3.91369 5.90128 2.26034 7.89775 2.26034C9.89422 2.26034 11.5127 3.91366 11.5127 5.95316V6.69171Z" fill="#7910B1"/>
</svg>
