<svg width="31" height="27" viewBox="0 0 31 27" fill="none" xmlns="http://www.w3.org/2000/svg">
<path d="M15.4286 3.89258C9.53298 3.89258 4.18656 7.41636 0.241441 13.1399C-0.0804804 13.6088 -0.0804804 14.2639 0.241441 14.7329C4.18656 20.4633 9.53298 23.9871 15.4286 23.9871C21.3242 23.9871 26.6706 20.4633 30.6157 14.7398C30.9376 14.2708 30.9376 13.6157 30.6157 13.1468C26.6706 7.41636 21.3242 3.89258 15.4286 3.89258ZM15.8515 21.015C11.9379 21.2839 8.70609 17.7601 8.95226 13.4778C9.15425 9.94714 11.7738 7.08536 15.0057 6.86469C18.9192 6.59575 22.1511 10.1195 21.9049 14.4019C21.6966 17.9256 19.077 20.7874 15.8515 21.015ZM15.6558 17.7463C13.5475 17.8912 11.8054 15.9948 11.9442 13.6916C12.0515 11.7883 13.4655 10.2506 15.2076 10.1264C17.3159 9.98161 19.0581 11.878 18.9192 14.1812C18.8056 16.0913 17.3917 17.6291 15.6558 17.7463Z" fill="white"/>
<path d="M2.69336 1.5L27.263 25.5" stroke="white" stroke-width="1.5" stroke-linecap="square"/>
</svg>
