<svg width="60" height="60" viewBox="0 0 60 60" fill="none" xmlns="http://www.w3.org/2000/svg">
<path d="M5 11.25H21.8934C23.8825 11.25 25.7903 12.0402 27.1968 13.4467L35 21.25" stroke="#141B34" stroke-width="2" stroke-linecap="round" stroke-linejoin="round"/>
<path d="M12.5 33.75H5" stroke="#141B34" stroke-width="2" stroke-linecap="round" stroke-linejoin="round"/>
<path d="M21.25 18.75L26.25 23.75C27.6307 25.1307 27.6307 27.3693 26.25 28.75C24.8693 30.1307 22.6307 30.1307 21.25 28.75L17.5 25C15.3483 27.1518 11.9418 27.3937 9.50735 25.568L8.75 25" stroke="#141B34" stroke-width="2" stroke-linecap="round" stroke-linejoin="round"/>
<path d="M12.5 27.5V38.75C12.5 43.464 12.5 45.821 13.9645 47.2855C15.4289 48.75 17.786 48.75 22.5 48.75H45C49.714 48.75 52.071 48.75 53.5355 47.2855C55 45.821 55 43.464 55 38.75V31.25C55 26.536 55 24.1789 53.5355 22.7145C52.071 21.25 49.714 21.25 45 21.25H23.75" fill="#E9A9FF"/>
<path d="M12.5 27.5V38.75C12.5 43.464 12.5 45.821 13.9645 47.2855C15.4289 48.75 17.786 48.75 22.5 48.75H45C49.714 48.75 52.071 48.75 53.5355 47.2855C55 45.821 55 43.464 55 38.75V31.25C55 26.536 55 24.1789 53.5355 22.7145C52.071 21.25 49.714 21.25 45 21.25H23.75" stroke="#141B34" stroke-width="2" stroke-linecap="round" stroke-linejoin="round"/>
<path d="M38.125 35C38.125 37.4162 36.1662 39.375 33.75 39.375C31.3338 39.375 29.375 37.4162 29.375 35C29.375 32.5838 31.3338 30.625 33.75 30.625C36.1662 30.625 38.125 32.5838 38.125 35Z" fill="#D9D9D9" stroke="#141B34" stroke-width="1.5" stroke-linecap="round" stroke-linejoin="round"/>
</svg>
