<svg width="20" height="21" viewBox="0 0 20 21" fill="none" xmlns="http://www.w3.org/2000/svg">
<path d="M1.63672 4.61523H7.17031C7.82186 4.61523 8.44675 4.87406 8.90747 5.33478L11.4635 7.89083" stroke="#F1F1F1" stroke-width="1.22835" stroke-linecap="round" stroke-linejoin="round"/>
<path d="M4.09341 11.9844H1.63672" stroke="#F1F1F1" stroke-width="1.22835" stroke-linecap="round" stroke-linejoin="round"/>
<path d="M6.95972 7.07031L8.59752 8.70811C9.04979 9.16038 9.04979 9.89363 8.59752 10.3459C8.14526 10.7982 7.41199 10.7982 6.95972 10.3459L5.73138 9.11756C5.02656 9.82238 3.91073 9.90165 3.11331 9.30361L2.86523 9.11756" stroke="#F1F1F1" stroke-width="1.22835" stroke-linecap="round" stroke-linejoin="round"/>
<path d="M4.09375 9.93787V13.6229C4.09375 15.167 4.09375 15.9391 4.57345 16.4188C5.05315 16.8985 5.82521 16.8985 7.36934 16.8985H14.7394C16.2835 16.8985 17.0556 16.8985 17.5353 16.4188C18.015 15.9391 18.015 15.167 18.015 13.6229V11.1662C18.015 9.6221 18.015 8.85002 17.5353 8.37033C17.0556 7.89062 16.2835 7.89062 14.7394 7.89062H7.77879" stroke="#F1F1F1" stroke-width="1.22835" stroke-linecap="round" stroke-linejoin="round"/>
<path d="M12.4872 12.394C12.4872 13.1855 11.8456 13.8271 11.0542 13.8271C10.2627 13.8271 9.62109 13.1855 9.62109 12.394C9.62109 11.6025 10.2627 10.9609 11.0542 10.9609C11.8456 10.9609 12.4872 11.6025 12.4872 12.394Z" stroke="#F1F1F1" stroke-width="1.22835" stroke-linecap="round" stroke-linejoin="round"/>
</svg>
