<svg width="28" height="28" viewBox="0 0 28 28" fill="none" xmlns="http://www.w3.org/2000/svg">
<path d="M14.0007 10.5007C13.0724 10.5007 12.1822 10.8694 11.5258 11.5258C10.8694 12.1822 10.5007 13.0724 10.5007 14.0007C10.5007 14.9289 10.8694 15.8191 11.5258 16.4755C12.1822 17.1319 13.0724 17.5007 14.0007 17.5007C14.9289 17.5007 15.8191 17.1319 16.4755 16.4755C17.1319 15.8191 17.5007 14.9289 17.5007 14.0007C17.5007 13.0724 17.1319 12.1822 16.4755 11.5258C15.8191 10.8694 14.9289 10.5007 14.0007 10.5007ZM14.0007 8.16732C15.5477 8.16732 17.0315 8.7819 18.1254 9.87586C19.2194 10.9698 19.834 12.4536 19.834 14.0007C19.834 15.5477 19.2194 17.0315 18.1254 18.1254C17.0315 19.2194 15.5477 19.834 14.0007 19.834C12.4536 19.834 10.9698 19.2194 9.87586 18.1254C8.7819 17.0315 8.16732 15.5477 8.16732 14.0007C8.16732 12.4536 8.7819 10.9698 9.87586 9.87586C10.9698 8.7819 12.4536 8.16732 14.0007 8.16732ZM21.584 7.87565C21.584 8.26243 21.4303 8.63336 21.1569 8.90685C20.8834 9.18034 20.5124 9.33398 20.1257 9.33398C19.7389 9.33398 19.3679 9.18034 19.0945 8.90685C18.821 8.63336 18.6673 8.26243 18.6673 7.87565C18.6673 7.48888 18.821 7.11794 19.0945 6.84445C19.3679 6.57096 19.7389 6.41732 20.1257 6.41732C20.5124 6.41732 20.8834 6.57096 21.1569 6.84445C21.4303 7.11794 21.584 7.48888 21.584 7.87565ZM14.0007 4.66732C11.1143 4.66732 10.643 4.67548 9.30015 4.73498C8.38549 4.77815 7.77182 4.90065 7.20248 5.12232C6.72604 5.29725 6.2953 5.57762 5.94248 5.94248C5.57733 6.29528 5.29656 6.726 5.12115 7.20248C4.89948 7.77415 4.77698 8.38665 4.73498 9.30015C4.67432 10.5882 4.66615 11.0385 4.66615 14.0007C4.66615 16.8882 4.67432 17.3583 4.73382 18.7012C4.77698 19.6147 4.89948 20.2295 5.11998 20.7977C5.31832 21.3052 5.55165 21.6703 5.93898 22.0577C6.33215 22.4497 6.69732 22.6842 7.19898 22.8778C7.77532 23.1007 8.38899 23.2243 9.29899 23.2663C10.587 23.327 11.0373 23.334 13.9995 23.334C16.887 23.334 17.3572 23.3258 18.7 23.2663C19.6123 23.2232 20.226 23.1007 20.7965 22.8802C21.2725 22.7044 21.7031 22.4241 22.0565 22.06C22.4497 21.668 22.6842 21.3028 22.8778 20.8C23.0995 20.226 23.2232 19.6123 23.2652 18.7C23.3258 17.4132 23.3328 16.9617 23.3328 14.0007C23.3328 11.1143 23.3247 10.643 23.2652 9.30015C23.222 8.38782 23.0983 7.77182 22.8778 7.20248C22.702 6.7265 22.4217 6.29596 22.0577 5.94248C21.705 5.57714 21.2742 5.29635 20.7977 5.12115C20.226 4.89948 19.6123 4.77698 18.7 4.73498C17.4132 4.67432 16.964 4.66732 14.0007 4.66732ZM14.0007 2.33398C17.1705 2.33398 17.566 2.34565 18.8108 2.40398C20.0522 2.46232 20.8992 2.65715 21.6423 2.94648C22.4123 3.24282 23.061 3.64415 23.7097 4.29165C24.3029 4.87486 24.7619 5.58034 25.0548 6.35898C25.343 7.10215 25.539 7.94915 25.5973 9.19165C25.6522 10.4353 25.6673 10.8308 25.6673 14.0007C25.6673 17.1705 25.6557 17.566 25.5973 18.8097C25.539 20.0522 25.343 20.898 25.0548 21.6423C24.7627 22.4214 24.3036 23.127 23.7097 23.7097C23.1263 24.3027 22.4208 24.7617 21.6423 25.0548C20.8992 25.343 20.0522 25.539 18.8108 25.5973C17.566 25.6522 17.1705 25.6673 14.0007 25.6673C10.8308 25.6673 10.4353 25.6557 9.19048 25.5973C7.94915 25.539 7.10332 25.343 6.35898 25.0548C5.58003 24.7625 4.87443 24.3034 4.29165 23.7097C3.69832 23.1265 3.23927 22.421 2.94648 21.6423C2.65715 20.8992 2.46232 20.0522 2.40398 18.8097C2.34798 17.566 2.33398 17.1705 2.33398 14.0007C2.33398 10.8308 2.34565 10.4353 2.40398 9.19165C2.46232 7.94798 2.65715 7.10332 2.94648 6.35898C3.23843 5.57986 3.69759 4.87419 4.29165 4.29165C4.8746 3.69809 5.58015 3.239 6.35898 2.94648C7.10215 2.65715 7.94798 2.46232 9.19048 2.40398C10.4353 2.34915 10.8308 2.33398 14.0007 2.33398Z" fill="#7910B1"/>
</svg>
