<svg width="14" height="14" viewBox="0 0 14 14" fill="none" xmlns="http://www.w3.org/2000/svg">
<path d="M12.5871 12.8977L8.66941 8.97996M0.833984 5.7152C0.833984 6.31543 0.952208 6.90978 1.18191 7.46432C1.4116 8.01885 1.74828 8.52272 2.1727 8.94715C2.59713 9.37157 3.10099 9.70825 3.65553 9.93794C4.21007 10.1676 4.80442 10.2859 5.40465 10.2859C6.00488 10.2859 6.59923 10.1676 7.15377 9.93794C7.70831 9.70825 8.21217 9.37157 8.6366 8.94715C9.06102 8.52272 9.3977 8.01885 9.6274 7.46432C9.85709 6.90978 9.97532 6.31543 9.97532 5.7152C9.97532 5.11497 9.85709 4.52062 9.6274 3.96608C9.3977 3.41154 9.06102 2.90767 8.6366 2.48325C8.21217 2.05882 7.70831 1.72215 7.15377 1.49245C6.59923 1.26275 6.00488 1.14453 5.40465 1.14453C4.80442 1.14453 4.21007 1.26275 3.65553 1.49245C3.10099 1.72215 2.59713 2.05882 2.1727 2.48325C1.74828 2.90767 1.4116 3.41154 1.18191 3.96608C0.952208 4.52062 0.833984 5.11497 0.833984 5.7152Z" stroke="#7910B1" stroke-width="1.17531" stroke-linecap="round" stroke-linejoin="round"/>
</svg>
