<svg width="21" height="21" viewBox="0 0 21 21" fill="none" xmlns="http://www.w3.org/2000/svg">
<path fill-rule="evenodd" clip-rule="evenodd" d="M8 0H12.24C14.3617 0 16.3966 0.842855 17.8969 2.34315C19.3971 3.84344 20.24 5.87827 20.24 8V12.24C20.24 16.6583 16.6583 20.24 12.24 20.24H8C3.58172 20.24 0 16.6583 0 12.24V8C0 3.58172 3.58172 0 8 0ZM14.39 10.87H16.12V10.9C16.5342 10.9 16.87 10.5642 16.87 10.15C16.87 9.73579 16.5342 9.4 16.12 9.4H14.37C13.8524 9.39829 13.3555 9.60351 12.99 9.97L10.84 12.12V7.12C10.937 6.65766 10.6973 6.19048 10.2651 5.99974C9.8329 5.80899 9.32617 5.94672 9.05 6.33L6.17 9.23C6.08414 9.32036 5.96464 9.37105 5.84 9.37H4.12C3.70579 9.37 3.37 9.70579 3.37 10.12C3.37 10.5342 3.70579 10.87 4.12 10.87H5.84C6.36121 10.8652 6.85995 10.6571 7.23 10.29L9.33 8.14V13.14C9.30243 13.5802 9.56651 13.9865 9.98 14.14C10.1057 14.1963 10.2424 14.2236 10.38 14.22C10.658 14.2187 10.9241 14.1072 11.12 13.91L14.07 11C14.1568 10.9185 14.2709 10.8721 14.39 10.87Z" fill="#7910B1"/>
</svg>
