<svg width="20" height="21" viewBox="0 0 20 21" fill="none" xmlns="http://www.w3.org/2000/svg">
<path d="M12.6932 10.37C12.6932 11.953 11.41 13.2362 9.82708 13.2362C8.24415 13.2362 6.96094 11.953 6.96094 10.37C6.96094 8.78712 8.24415 7.50391 9.82708 7.50391C11.41 7.50391 12.6932 8.78712 12.6932 10.37Z" stroke="#F1F1F1" stroke-width="1.22835"/>
<path d="M17.2048 12.0856C17.6322 11.9704 17.8459 11.9127 17.9302 11.8025C18.0147 11.6924 18.0147 11.5151 18.0147 11.1606V9.57707C18.0147 9.22257 18.0147 9.04528 17.9302 8.93514C17.8458 8.82491 17.6322 8.76726 17.2048 8.65203C15.6076 8.22129 14.608 6.5515 15.0202 4.96477C15.1335 4.52839 15.1902 4.31021 15.1361 4.18225C15.082 4.05428 14.9267 3.9661 14.616 3.78972L13.2036 2.98783C12.8989 2.81477 12.7465 2.72824 12.6097 2.74666C12.4729 2.76509 12.3186 2.91905 12.0099 3.22695C10.8149 4.41906 8.83778 4.41901 7.64279 3.22688C7.33414 2.91897 7.17982 2.76501 7.04302 2.74658C6.90623 2.72815 6.75382 2.81469 6.449 2.98775L5.03665 3.78965C4.72603 3.96601 4.57072 4.05419 4.5166 4.18213C4.46247 4.31008 4.51913 4.5283 4.63245 4.96471C5.04445 6.55149 4.04405 8.22133 2.44662 8.65204C2.01924 8.76726 1.80555 8.82491 1.72113 8.93505C1.63672 9.04528 1.63672 9.22257 1.63672 9.57707V11.1606C1.63672 11.5151 1.63672 11.6924 1.72113 11.8025C1.80553 11.9127 2.01923 11.9704 2.44662 12.0856C4.04379 12.5163 5.0434 14.1862 4.6312 15.7728C4.51784 16.2092 4.46115 16.4274 4.51527 16.5554C4.5694 16.6834 4.72472 16.7716 5.03535 16.9479L6.4477 17.7498C6.75254 17.9229 6.90497 18.0094 7.04177 17.991C7.17858 17.9726 7.33287 17.8185 7.64146 17.5106C8.83704 16.3176 10.8156 16.3175 12.0113 17.5106C12.3198 17.8185 12.4741 17.9725 12.6109 17.9909C12.7477 18.0093 12.9002 17.9228 13.205 17.7497L14.6173 16.9478C14.928 16.7715 15.0833 16.6833 15.1374 16.5553C15.1915 16.4273 15.1349 16.2092 15.0214 15.7728C14.609 14.1862 15.6078 12.5164 17.2048 12.0856Z" stroke="#F1F1F1" stroke-width="1.22835" stroke-linecap="round"/>
</svg>
