<svg width="14" height="15" viewBox="0 0 14 15" fill="none" xmlns="http://www.w3.org/2000/svg">
<path d="M8.72451 1.85156H6.54108C5.55197 1.85156 4.76809 1.85156 4.15522 1.93455C3.52386 2.01978 3.01304 2.19921 2.61045 2.60349C2.20729 3.00776 2.02842 3.52082 1.94375 4.15443C1.86133 4.7701 1.86133 5.55679 1.86133 6.54982V9.82329C1.86133 10.6688 2.37719 11.3933 3.11005 11.6972C3.07248 11.187 3.07248 10.472 3.07248 9.87656V7.06736C3.07248 6.34908 3.07248 5.72949 3.13864 5.23381C3.20985 4.70225 3.37022 4.19312 3.78179 3.77987C4.19335 3.36662 4.7008 3.2057 5.23012 3.13392C5.72355 3.06776 6.34034 3.06776 7.05638 3.06776H8.77778C9.49326 3.06776 10.1089 3.06776 10.6029 3.13392C10.4549 2.75621 10.1965 2.43185 9.86145 2.20311C9.52639 1.97437 9.1302 1.85187 8.72451 1.85156Z" fill="#7910B1"/>
<path d="M3.87891 7.12154C3.87891 5.59302 3.87891 4.82876 4.35215 4.35383C4.82484 3.87891 5.58573 3.87891 7.10864 3.87891H8.72351C10.2459 3.87891 11.0073 3.87891 11.4806 4.35383C11.9532 4.82876 11.9532 5.59302 11.9532 7.12154V9.8242C11.9532 11.3527 11.9532 12.117 11.4806 12.5919C11.0073 13.0668 10.2459 13.0668 8.72351 13.0668H7.10864C5.58629 13.0668 4.82484 13.0668 4.35215 12.5919C3.87891 12.117 3.87891 11.3527 3.87891 9.8242V7.12154Z" fill="#7910B1"/>
</svg>
