<svg width="22" height="21" viewBox="0 0 22 21" fill="none" xmlns="http://www.w3.org/2000/svg">
<path d="M17.5038 17.7489C17.3386 17.7489 17.1734 17.6881 17.043 17.5664C16.7822 17.3143 16.7822 16.9057 17.0343 16.6449C18.5209 15.1322 19.3381 13.1327 19.3381 11.0115C19.3381 6.57782 15.7303 2.97004 11.2966 2.97004C6.86298 2.97004 3.25519 6.57782 3.25519 11.0115C3.25519 13.124 4.06368 15.1148 5.54157 16.6275C5.79368 16.8883 5.78499 17.2969 5.53288 17.549C5.27208 17.8011 4.86348 17.7924 4.61137 17.5403C2.89876 15.7842 1.95117 13.4631 1.95117 11.0115C1.95117 5.85627 6.14142 1.66602 11.2966 1.66602C16.4519 1.66602 20.6421 5.85627 20.6421 11.0115C20.6421 13.4717 19.6945 15.8016 17.9645 17.5577C17.8428 17.6881 17.669 17.7489 17.5038 17.7489Z" fill="#7910B1"/>
<path d="M11.2969 19.2715C13.1598 19.2715 14.67 17.7613 14.67 15.8985C14.67 14.0356 13.1598 12.5254 11.2969 12.5254C9.434 12.5254 7.92383 14.0356 7.92383 15.8985C7.92383 17.7613 9.434 19.2715 11.2969 19.2715Z" fill="#7910B1"/>
<path d="M14.7758 7.53516C13.8195 7.53516 13.0371 8.31757 13.0371 9.27385V9.92586C13.0371 10.5257 13.5239 11.0125 14.1238 11.0125H14.7758C15.7321 11.0125 16.5145 10.2301 16.5145 9.27385C16.5145 8.31757 15.7321 7.53516 14.7758 7.53516Z" fill="#7910B1"/>
</svg>
