<svg width="24" height="25" viewBox="0 0 24 25" fill="none" xmlns="http://www.w3.org/2000/svg">
<path d="M22 12.5C22 6.97715 17.5228 2.5 12 2.5C6.47715 2.5 2 6.97715 2 12.5C2 18.0228 6.47715 22.5 12 22.5C17.5228 22.5 22 18.0228 22 12.5Z" stroke="#141B34" stroke-width="1.5"/>
<path d="M13.1525 15.7136L12.975 15.1571C12.8295 14.701 12.7567 14.473 12.8127 14.293C12.8579 14.1473 12.9573 14.0217 13.0927 13.9391C13.26 13.8369 13.5131 13.8369 14.0194 13.8369H14.2887C16.0021 13.8369 16.8588 13.8369 17.2634 13.3447C17.3097 13.2884 17.3508 13.2286 17.3864 13.1659C17.6977 12.6168 17.3438 11.8773 16.636 10.3981C15.9865 9.04072 15.6617 8.36203 15.0587 7.96255C15.0003 7.92387 14.9403 7.8874 14.8789 7.8532C14.244 7.5 13.4574 7.5 11.8843 7.5H11.5431C9.63715 7.5 8.68419 7.5 8.09209 8.05681C7.5 8.61363 7.5 9.50981 7.5 11.3022V11.9321C7.5 12.8741 7.5 13.345 7.67223 13.7761C7.84445 14.2071 8.17424 14.5616 8.8338 15.2705L11.5614 18.202C11.6298 18.2755 11.664 18.3123 11.6942 18.3378C11.9757 18.5755 12.4102 18.5488 12.6563 18.2785C12.6826 18.2495 12.7115 18.2089 12.7691 18.1276C12.8592 18.0004 12.9043 17.9369 12.9436 17.8739C13.2952 17.31 13.4016 16.6401 13.2405 16.0042C13.2225 15.9332 13.1992 15.8599 13.1525 15.7136Z" stroke="#141B34" stroke-width="1.5" stroke-linecap="round" stroke-linejoin="round"/>
</svg>
