<svg width="30" height="31" viewBox="0 0 30 31" fill="none" xmlns="http://www.w3.org/2000/svg">
<path fill-rule="evenodd" clip-rule="evenodd" d="M7.2619 3H22.7381C25.368 3 27.5 5.13198 27.5 7.7619V23.2381C27.5 25.868 25.368 28 22.7381 28H7.2619C4.63198 28 2.5 25.868 2.5 23.2381V7.7619C2.5 5.13198 4.63198 3 7.2619 3ZM21.5476 16.9881C22.0407 16.9881 22.4405 16.5884 22.4405 16.0952V12.4762C22.4341 11.9858 22.038 11.5897 21.5476 11.5833H17.9762C17.4831 11.5833 17.0833 11.9831 17.0833 12.4762C17.0833 12.9693 17.4831 13.369 17.9762 13.369H19.0357L14.7976 17.6071L12.4167 15.2262C11.7848 14.5966 10.7628 14.5966 10.131 15.2262L7.07143 18.2857C6.72327 18.6343 6.72327 19.199 7.07143 19.5476C7.23796 19.7162 7.4654 19.8106 7.70238 19.8095C7.93963 19.812 8.16759 19.7174 8.33333 19.5476L11.3214 16.6905L13.7024 19.0714C14.3342 19.7011 15.3563 19.7011 15.9881 19.0714L20.6548 14.369V16.0952C20.6548 16.5884 21.0545 16.9881 21.5476 16.9881Z" fill="black"/>
</svg>
