<svg width="18" height="18" viewBox="0 0 18 18" fill="none" xmlns="http://www.w3.org/2000/svg">
<path fill-rule="evenodd" clip-rule="evenodd" d="M10.54 0.735656C10.2184 0.603516 9.80976 0.603516 8.99344 0.603516C8.17713 0.603516 7.76853 0.603516 7.44688 0.735656C7.01868 0.911448 6.67783 1.25011 6.49929 1.67716C6.41757 1.87102 6.38627 2.09792 6.37323 2.42741C6.36743 2.66613 6.30084 2.89943 6.17976 3.10525C6.05867 3.31107 5.88709 3.4826 5.68123 3.60363C5.4715 3.72021 5.23573 3.78197 4.99577 3.78319C4.75582 3.7844 4.51944 3.72504 4.30853 3.61059C4.01469 3.45584 3.8017 3.37065 3.59132 3.34283C3.13105 3.28239 2.66553 3.40612 2.296 3.68709C2.01954 3.89747 1.81525 4.24869 1.40752 4.95025C0.998931 5.65181 0.795504 6.00216 0.749428 6.34555C0.688574 6.80283 0.81376 7.26532 1.09717 7.63131C1.22583 7.79823 1.40752 7.93819 1.68832 8.1138C2.103 8.372 2.36902 8.81189 2.36902 9.29698C2.36902 9.78208 2.103 10.222 1.68919 10.4793C1.40752 10.6558 1.22583 10.7957 1.0963 10.9627C0.956405 11.1434 0.853723 11.3501 0.794186 11.5708C0.734649 11.7915 0.719436 12.0218 0.749428 12.2484C0.795504 12.5909 0.998931 12.9422 1.40752 13.6437C1.81612 14.3453 2.01954 14.6956 2.296 14.9069C2.6646 15.1877 3.13057 15.3111 3.59132 15.2511C3.8017 15.2233 4.01469 15.1381 4.30853 14.9834C4.51955 14.8688 4.75609 14.8093 4.99621 14.8105C5.23633 14.8118 5.47226 14.8736 5.6821 14.9903C6.1046 15.2338 6.35498 15.6815 6.37323 16.1666C6.38627 16.4969 6.41757 16.7229 6.49929 16.9168C6.67663 17.3428 7.01742 17.6818 7.44688 17.8583C7.76853 17.9904 8.17713 17.9904 8.99344 17.9904C9.80976 17.9904 10.2184 17.9904 10.54 17.8583C10.9682 17.6825 11.3091 17.3439 11.4876 16.9168C11.5693 16.7229 11.6006 16.4969 11.6137 16.1666C11.631 15.6815 11.8823 15.2329 12.3057 14.9903C12.5154 14.8738 12.7512 14.812 12.9911 14.8108C13.2311 14.8096 13.4674 14.8689 13.6784 14.9834C13.9722 15.1381 14.1852 15.2233 14.3956 15.2511C14.8563 15.312 15.3223 15.1877 15.6909 14.9069C15.9673 14.6965 16.1716 14.3453 16.5794 13.6437C16.988 12.9422 17.1914 12.5918 17.2375 12.2484C17.2673 12.0218 17.252 11.7914 17.1923 11.5707C17.1326 11.35 17.0298 11.1434 16.8897 10.9627C16.7611 10.7957 16.5794 10.6558 16.2986 10.4802C15.8839 10.222 15.6179 9.78208 15.6179 9.29698C15.6179 8.81189 15.8839 8.372 16.2977 8.11467C16.5794 7.93819 16.7611 7.79823 16.8906 7.63131C17.0305 7.45054 17.1332 7.24384 17.1927 7.02315C17.2522 6.80246 17.2674 6.57215 17.2375 6.34555C17.1914 6.00303 16.988 5.65181 16.5794 4.95025C16.1708 4.24869 15.9673 3.89834 15.6909 3.68709C15.3214 3.40612 14.8558 3.28239 14.3956 3.34283C14.1852 3.37065 13.9722 3.45584 13.6784 3.61059C13.4673 3.72519 13.2308 3.78464 12.9907 3.78343C12.7506 3.78221 12.5146 3.72037 12.3048 3.60363C12.0991 3.4825 11.9277 3.31092 11.8068 3.10511C11.6858 2.89929 11.6194 2.66605 11.6137 2.42741C11.6006 2.09705 11.5693 1.87102 11.4876 1.67716C11.3992 1.46568 11.2701 1.27368 11.1075 1.11213C10.9449 0.950587 10.7521 0.822659 10.54 0.735656ZM8.99344 11.905C10.4453 11.905 11.6215 10.7375 11.6215 9.29698C11.6215 7.85648 10.4444 6.68894 8.99344 6.68894C7.54163 6.68894 6.36541 7.85648 6.36541 9.29698C6.36541 10.7375 7.5425 11.905 8.99344 11.905Z" fill="#7910B1"/>
</svg>
