<svg width="22" height="13" viewBox="0 0 22 13" fill="none" xmlns="http://www.w3.org/2000/svg">
<path d="M17.3828 10.731V12.4697H6.95066V10.731C6.95066 10.731 6.95066 7.2536 12.1667 7.2536C17.3828 7.2536 17.3828 10.731 17.3828 10.731ZM14.7748 2.90687C14.7748 2.39105 14.6218 1.88681 14.3352 1.45792C14.0487 1.02903 13.6414 0.694751 13.1648 0.497355C12.6882 0.299958 12.1638 0.24831 11.6579 0.348942C11.152 0.449574 10.6873 0.697965 10.3226 1.06271C9.95784 1.42745 9.70945 1.89216 9.60881 2.39807C9.50818 2.90398 9.55983 3.42837 9.75723 3.90492C9.95462 4.38148 10.2889 4.7888 10.7178 5.07537C11.1467 5.36195 11.6509 5.51491 12.1667 5.51491C12.8584 5.51491 13.5218 5.24013 14.0109 4.75103C14.5 4.26193 14.7748 3.59856 14.7748 2.90687ZM17.5567 7.30576C18.0319 7.74418 18.415 8.27286 18.6837 8.86095C18.9524 9.44904 19.1012 10.0848 19.1215 10.731V12.4697H21.7296V10.731C21.7296 10.731 21.7296 7.73174 17.5567 7.30576ZM16.5135 0.298829C16.2508 0.298986 15.9898 0.340048 15.7398 0.420538C16.2484 1.14989 16.5211 2.01769 16.5211 2.90687C16.5211 3.79605 16.2484 4.66385 15.7398 5.3932C15.9898 5.47369 16.2508 5.51475 16.5135 5.51491C17.2052 5.51491 17.8685 5.24013 18.3576 4.75103C18.8467 4.26193 19.1215 3.59856 19.1215 2.90687C19.1215 2.21517 18.8467 1.55181 18.3576 1.06271C17.8685 0.573604 17.2052 0.298829 16.5135 0.298829ZM7.82001 4.64556H5.21197V2.03752H3.47327V4.64556H0.865234V6.38426H3.47327V8.9923H5.21197V6.38426H7.82001V4.64556Z" fill="#7910B1"/>
</svg>
