<svg width="8" height="11" viewBox="0 0 8 11" fill="none" xmlns="http://www.w3.org/2000/svg">
<path d="M7.87047 4.45273C8.01766 3.47023 7.26906 2.94195 6.24625 2.58945L6.57812 1.2582L5.76812 1.05664L5.44469 2.35273C5.23187 2.2993 5.01344 2.24961 4.79547 2.19992L5.12125 0.895391L4.31125 0.693359L3.97937 2.02414C3.80312 1.98383 3.62969 1.94445 3.46187 1.90227L3.46281 1.89805L2.34531 1.61914L2.12969 2.48445C2.12969 2.48445 2.73109 2.62227 2.71844 2.6307C3.04656 2.71273 3.10562 2.92977 3.09578 3.10227L2.71797 4.61867C2.74047 4.6243 2.76953 4.63273 2.80234 4.64539L2.71656 4.6243L2.18688 6.74867C2.14656 6.84805 2.04484 6.99758 1.81516 6.94086C1.82359 6.95258 1.22641 6.79414 1.22641 6.79414L0.824219 7.72133L1.87891 7.9843C2.07484 8.03352 2.26703 8.08508 2.45594 8.13336L2.12078 9.47961L2.93031 9.68117L3.26219 8.34992C3.48344 8.40945 3.69812 8.46477 3.90812 8.51727L3.57719 9.84289L4.38719 10.0445L4.72234 8.70102C6.10422 8.96258 7.14297 8.85711 7.58031 7.60742C7.93281 6.60148 7.56297 6.0207 6.83594 5.64242C7.36562 5.52055 7.76406 5.17227 7.87047 4.45273ZM6.01891 7.04867C5.76906 8.05508 4.07453 7.51086 3.52516 7.37445L3.97047 5.59086C4.51984 5.7282 6.28094 5.99961 6.01891 7.04867ZM6.26969 4.4382C6.04141 5.35367 4.63141 4.8882 4.17437 4.7743L4.5775 3.15711C5.03453 3.27102 6.50781 3.48336 6.26969 4.4382Z" fill="white"/>
</svg>
