<svg width="21" height="25" viewBox="0 0 21 25" fill="none" xmlns="http://www.w3.org/2000/svg">
<path d="M17.1308 8.50994V7.08592C17.1308 3.21995 13.9969 0.0859375 10.1308 0.0859375C6.26483 0.0859375 3.13086 3.21995 3.13086 7.08592V8.50994C1.31089 9.30423 0.133484 11.1002 0.130859 13.0859V19.0859C0.134141 21.846 2.37078 24.0827 5.13083 24.0859H15.1308C17.8909 24.0827 20.1275 21.846 20.1308 19.0859V13.0859C20.1283 11.1002 18.9508 9.30423 17.1308 8.50994ZM11.1308 17.086C11.1308 17.6382 10.6831 18.0859 10.1308 18.0859C9.57856 18.0859 9.13086 17.6382 9.13086 17.086V15.0859C9.13086 14.5337 9.57856 14.086 10.1308 14.086C10.6831 14.086 11.1308 14.5337 11.1308 15.0859V17.086ZM15.1309 8.08595H5.13083V7.08597C5.13083 4.32456 7.36939 2.08595 10.1308 2.08595C12.8923 2.08595 15.1309 4.32452 15.1309 7.08597V8.08595Z" fill="#7910B1"/>
</svg>
