<svg width="19" height="18" viewBox="0 0 19 18" fill="none" xmlns="http://www.w3.org/2000/svg">
<path d="M9.51478 17.717C8.29769 17.717 7.15682 17.4852 6.09216 17.0215C5.0275 16.5579 4.1002 15.9311 3.31025 15.1411C2.5203 14.3518 1.8935 13.4245 1.42985 12.3592C0.966201 11.294 0.734375 10.1531 0.734375 8.93661C0.734375 6.8212 1.40812 4.95558 2.75561 3.33976C4.10309 1.72393 5.82005 0.720705 7.90649 0.330078C7.64568 1.7645 7.72537 3.16647 8.14556 4.53598C8.56574 5.90549 9.2902 7.10432 10.3189 8.13247C11.3476 9.16119 12.5468 9.88565 13.9163 10.3058C15.2858 10.726 16.6875 10.8057 18.1213 10.5449C17.7446 12.6313 16.7448 14.3483 15.1221 15.6958C13.4993 17.0433 11.6302 17.717 9.51478 17.717Z" fill="#7910B1"/>
</svg>
