<svg width="9" height="9" viewBox="0 0 9 9" fill="none" xmlns="http://www.w3.org/2000/svg">
<path d="M7.5944 3.33782L7.62174 3.36047L8.33971 4.07844C8.37206 4.11076 8.39205 4.1534 8.39619 4.19895C8.40033 4.24449 8.38836 4.29004 8.36236 4.32766L8.33971 4.35501L4.63815 8.05618C4.60585 8.08843 4.56328 8.10836 4.51783 8.1125C4.47237 8.11664 4.4269 8.10472 4.38932 8.07883L4.36197 8.05618L3.644 7.33782C3.61175 7.30552 3.59182 7.26295 3.58768 7.2175C3.58354 7.17204 3.59546 7.12658 3.62135 7.08899L3.644 7.06165L7.34518 3.36047C7.37337 3.33228 7.40951 3.31338 7.44876 3.30633C7.488 3.29927 7.52846 3.3044 7.56471 3.32102L7.5944 3.33782ZM6.12955 1.86907L6.8483 2.58704C6.88492 2.62366 6.90549 2.67333 6.90549 2.72512C6.90549 2.77691 6.88492 2.82658 6.8483 2.86321L3.14674 6.56477C3.11011 6.60139 3.06044 6.62195 3.00865 6.62195C2.95686 6.62195 2.90719 6.60139 2.87057 6.56477L2.15221 5.84641C2.11559 5.80978 2.09502 5.76011 2.09502 5.70832C2.09502 5.65654 2.11559 5.60687 2.15221 5.57024L5.85377 1.86907C5.8904 1.83245 5.94007 1.81188 5.99186 1.81188C6.04365 1.81188 6.09332 1.83245 6.12994 1.86907H6.12955ZM1.37916 3.36047C1.41145 3.32822 1.45402 3.30829 1.49948 3.30415C1.54493 3.30001 1.5904 3.31192 1.62799 3.33782L1.65533 3.36047L2.3733 4.07844C2.40566 4.11076 2.42565 4.1534 2.42979 4.19895C2.43393 4.24449 2.42195 4.29004 2.39596 4.32766L2.3733 4.35501L1.65533 5.07297C1.62302 5.10533 1.58037 5.12532 1.53483 5.12946C1.48929 5.1336 1.44374 5.12163 1.40611 5.09563L1.37877 5.07297L0.660802 4.35501C0.628447 4.32269 0.608458 4.28004 0.604318 4.2345C0.600178 4.18896 0.612149 4.14341 0.638146 4.10579L0.660802 4.07844L1.37916 3.36047ZM4.61119 0.354615L4.63854 0.377271L5.3565 1.09563C5.38886 1.12795 5.40885 1.17059 5.41299 1.21613C5.41713 1.26168 5.40516 1.30723 5.37916 1.34485L5.3565 1.3718L3.14674 3.58157C3.11442 3.61392 3.07178 3.63391 3.02624 3.63805C2.98069 3.64219 2.93514 3.63022 2.89752 3.60422L2.87057 3.58157L2.15221 2.86321C2.11991 2.83084 2.1 2.78817 2.09593 2.74263C2.09186 2.69709 2.1039 2.65157 2.12994 2.61399L2.15221 2.58704L4.36197 0.377271C4.39021 0.349137 4.42637 0.330316 4.46562 0.323333C4.50486 0.31635 4.5453 0.321541 4.58151 0.338209L4.61119 0.354615Z" fill="white"/>
</svg>
