<svg width="15" height="18" viewBox="0 0 15 18" fill="none" xmlns="http://www.w3.org/2000/svg">
<path d="M14.4944 15.7794L8.97725 1.82456C8.66375 1.10269 8.20381 0.75 7.59434 0.75H7.10656C6.49606 0.75 6.03509 1.10372 5.72366 1.82456L3.32394 7.90481H1.50791C0.963406 7.90687 0.522031 8.36681 0.517906 8.93606V8.9505C0.522031 9.52078 0.963406 9.98072 1.50791 9.98278H2.48347L0.193062 15.7794C0.149564 15.907 0.126591 16.0407 0.125 16.1754C0.125 16.5003 0.219875 16.755 0.396218 16.953C0.571531 17.151 0.815937 17.25 1.12841 17.25C1.33446 17.2467 1.53401 17.1773 1.69766 17.052C1.87297 16.9252 1.99569 16.7406 2.08953 16.5292L4.61197 9.98278H6.36097C6.90444 9.98072 7.34581 9.51975 7.35097 8.9505V8.92266C7.34581 8.35238 6.90444 7.89141 6.36097 7.89037H5.42563L7.34994 2.87128L12.5959 16.5281C12.6908 16.7395 12.8125 16.9241 12.9888 17.051C13.1548 17.1768 13.3539 17.2469 13.5591 17.249C13.8705 17.249 14.1149 17.15 14.2913 16.952C14.4666 16.754 14.5615 16.4993 14.5615 16.1744C14.5669 16.0392 14.5441 15.9053 14.4944 15.7794Z" fill="white"/>
</svg>
