<svg width="17" height="19" viewBox="0 0 17 19" fill="none" xmlns="http://www.w3.org/2000/svg">
<path d="M7.55837 0.316406C6.45166 0.316406 5.39027 0.756046 4.60771 1.53861C3.82515 2.32117 3.38551 3.38256 3.38551 4.48927C3.38551 5.59598 3.82515 6.65737 4.60771 7.43993C5.39027 8.2225 6.45166 8.66214 7.55837 8.66214C8.66508 8.66214 9.72647 8.2225 10.509 7.43993C11.2916 6.65737 11.7312 5.59598 11.7312 4.48927C11.7312 3.38256 11.2916 2.32117 10.509 1.53861C9.72647 0.756046 8.66508 0.316406 7.55837 0.316406ZM2.35168 9.70535C2.07694 9.70425 1.80468 9.7574 1.55052 9.86175C1.29636 9.9661 1.0653 10.1196 0.870584 10.3134C0.675873 10.5073 0.521342 10.7376 0.415854 10.9913C0.310365 11.245 0.255994 11.517 0.255859 11.7918C0.255859 13.5559 1.12486 14.886 2.48313 15.7529C3.82053 16.6052 5.62321 17.0079 7.55837 17.0079C7.9308 17.0079 8.29905 16.9933 8.66001 16.963C8.57721 16.6016 8.58292 16.2256 8.67664 15.8669C8.77036 15.5081 8.94932 15.1774 9.19831 14.9027L9.76686 14.2694C10.0253 13.9822 10.3562 13.7698 10.7249 13.6544C11.0936 13.5389 11.4866 13.5247 11.8627 13.6132L12.6816 13.8073C13.0759 13.4818 13.3148 13.0979 13.4244 12.6378L12.884 12.11C12.6018 11.8347 12.4064 11.4829 12.3217 11.0979C12.2369 10.7129 12.2667 10.3115 12.4072 9.9432L12.497 9.70535H2.35168ZM13.3837 10.3125L13.6789 9.53009C13.9481 8.81966 14.7868 8.46914 15.4941 8.77063L15.8989 8.9438C16.3923 9.15453 16.8002 9.53635 16.8868 10.0496C17.3636 12.8924 14.8964 16.9359 12.0567 17.9676C11.5435 18.1533 10.9895 18.0094 10.5493 17.711L10.1883 17.4658C10.0401 17.366 9.91535 17.2352 9.82261 17.0825C9.72987 16.9298 9.67136 16.7588 9.65113 16.5813C9.6309 16.4037 9.64942 16.2239 9.70542 16.0543C9.76143 15.8846 9.85357 15.7291 9.9755 15.5985L10.5441 14.9652C10.6773 14.8178 10.8477 14.7088 11.0374 14.6495C11.2271 14.5903 11.4292 14.5829 11.6227 14.6283L12.9007 14.9308C13.9136 14.2976 14.4572 13.4077 14.5302 12.2602L13.6142 11.3641C13.4771 11.2306 13.3821 11.0598 13.3412 10.8729C13.3002 10.686 13.315 10.4911 13.3837 10.3125Z" fill="#7910B1"/>
</svg>
