<svg width="17" height="18" viewBox="0 0 17 18" fill="none" xmlns="http://www.w3.org/2000/svg">
<path fill-rule="evenodd" clip-rule="evenodd" d="M1.75325 1.26497C0.734375 2.28297 0.734375 3.92256 0.734375 7.20087V10.6783C0.734375 13.9566 0.734375 15.5961 1.75325 16.6142C2.77125 17.633 4.41084 17.633 7.68915 17.633H9.42784C12.7062 17.633 14.3457 17.633 15.3637 16.6142C16.3826 15.5961 16.3826 13.9566 16.3826 10.6783V7.20087C16.3826 3.92256 16.3826 2.28297 15.3637 1.26497C14.3457 0.246094 12.7062 0.246094 9.42784 0.246094H7.68915C4.41084 0.246094 2.77125 0.246094 1.75325 1.26497ZM5.08111 6.54886C4.90819 6.54886 4.74234 6.61755 4.62007 6.73983C4.49779 6.8621 4.4291 7.02794 4.4291 7.20087C4.4291 7.37379 4.49779 7.53963 4.62007 7.66191C4.74234 7.78418 4.90819 7.85288 5.08111 7.85288H12.0359C12.2088 7.85288 12.3746 7.78418 12.4969 7.66191C12.6192 7.53963 12.6879 7.37379 12.6879 7.20087C12.6879 7.02794 12.6192 6.8621 12.4969 6.73983C12.3746 6.61755 12.2088 6.54886 12.0359 6.54886H5.08111ZM5.08111 10.0262C4.90819 10.0262 4.74234 10.0949 4.62007 10.2172C4.49779 10.3395 4.4291 10.5053 4.4291 10.6783C4.4291 10.8512 4.49779 11.017 4.62007 11.1393C4.74234 11.2616 4.90819 11.3303 5.08111 11.3303H9.42784C9.60077 11.3303 9.76661 11.2616 9.88888 11.1393C10.0112 11.017 10.0799 10.8512 10.0799 10.6783C10.0799 10.5053 10.0112 10.3395 9.88888 10.2172C9.76661 10.0949 9.60077 10.0262 9.42784 10.0262H5.08111Z" fill="#7910B1"/>
</svg>
