<svg width="19" height="18" viewBox="0 0 19 18" fill="none" xmlns="http://www.w3.org/2000/svg">
<path d="M10.428 6.60496H8.68935V4.86626H10.428M10.428 13.5597H8.68935V8.34365H10.428M9.5587 0.519531C8.41706 0.519531 7.2866 0.744394 6.23186 1.18128C5.17712 1.61817 4.21876 2.25853 3.41149 3.06579C1.78115 4.69613 0.865234 6.90735 0.865234 9.213C0.865234 11.5186 1.78115 13.7299 3.41149 15.3602C4.21876 16.1675 5.17712 16.8078 6.23186 17.2447C7.2866 17.6816 8.41706 17.9065 9.5587 17.9065C11.8644 17.9065 14.0756 16.9905 15.7059 15.3602C17.3363 13.7299 18.2522 11.5186 18.2522 9.213C18.2522 8.07136 18.0273 6.94089 17.5904 5.88615C17.1535 4.83141 16.5132 3.87305 15.7059 3.06579C14.8986 2.25853 13.9403 1.61817 12.8855 1.18128C11.8308 0.744394 10.7003 0.519531 9.5587 0.519531Z" fill="#7910B1"/>
</svg>
