<svg width="18" height="18" viewBox="0 0 18 18" fill="none" xmlns="http://www.w3.org/2000/svg">
<path d="M16.2291 12.2598L13.6891 11.9698C13.3904 11.9347 13.0877 11.9678 12.8036 12.0665C12.5196 12.1652 12.2616 12.327 12.0491 12.5398L10.2091 14.3798C7.37025 12.936 5.06284 10.6286 3.61906 7.78977L5.46906 5.93977C5.89906 5.50977 6.10906 4.90977 6.03906 4.29977L5.74906 1.77977C5.69237 1.29194 5.45826 0.842003 5.0913 0.515614C4.72434 0.189226 4.25017 0.00918337 3.75906 0.00976704H2.02906C0.899064 0.00976704 -0.0409359 0.949767 0.0290641 2.07977C0.559064 10.6198 7.38906 17.4398 15.9191 17.9698C17.0491 18.0398 17.9891 17.0998 17.9891 15.9698V14.2398C17.9991 13.2298 17.2391 12.3798 16.2291 12.2598Z" fill="white"/>
</svg>
