<svg width="27" height="27" viewBox="0 0 27 27" fill="none" xmlns="http://www.w3.org/2000/svg">
<path d="M18.0195 15.4618C18.0195 16.365 18.7518 17.0973 19.6551 17.0973C20.5584 17.0973 21.2907 16.365 21.2907 15.4618C21.2907 14.5585 20.5584 13.8262 19.6551 13.8262C18.7518 13.8262 18.0195 14.5585 18.0195 15.4618Z" stroke="#7910B1" stroke-width="1.63558"/>
<path d="M11.477 7.82835H18.0193C21.1034 7.82835 22.6454 7.82835 23.6035 8.78645C24.5617 9.74455 24.5617 11.2866 24.5617 14.3707V16.5514C24.5617 19.6355 24.5617 21.1775 23.6035 22.1356C22.6454 23.0938 21.1034 23.0938 18.0193 23.0938H11.477C7.36489 23.0938 5.30885 23.0938 4.03137 21.8163C2.75391 20.5389 2.75391 18.4827 2.75391 14.3707V12.1899C2.75391 8.07778 2.75391 6.02174 4.03137 4.74426C5.30885 3.4668 7.36489 3.4668 11.477 3.4668H15.8386C16.8526 3.4668 17.3596 3.4668 17.7756 3.57826C18.9044 3.88073 19.7862 4.76247 20.0887 5.89132C20.2001 6.3073 20.2001 6.81432 20.2001 7.82835" stroke="#7910B1" stroke-width="1.63558" stroke-linecap="round"/>
</svg>
